<?xml version="1.0" encoding="UTF-8"?>
<svg width="1199px" height="804px" viewBox="0 0 1199 804" version="1.1" xmlns="http://www.w3.org/2000/svg" xmlns:xlink="http://www.w3.org/1999/xlink">
    <title>Artboard@2x</title>
    <g id="Artboard" stroke="none" stroke-width="1" fill="none" fill-rule="evenodd">
        <polygon id="Fill-1" fill="#006747" points="0.215 141.96 1199.437 141.96 1199.437 0 0.215 0"></polygon>
        <polygon id="Fill-5" fill="#006747" points="0.215 803.917 1199.437 803.917 1199.437 661.957 0.215 661.957"></polygon>
        <polygon id="Fill-4" fill="#000100" points="0.215 661.957 1199.437 661.957 1199.437 622.912 0.215 622.912"></polygon>
        <polygon id="Fill-2" fill="#000100" points="0.215 181.005 1199.437 181.005 1199.437 141.96 0.215 141.96"></polygon>
        <g id="Symbol" transform="translate(0.215000, 181.005000)">
            <polygon id="Fill-3" fill="#012169" points="0 441.907 1199.222 441.907 1199.222 0 0 0"></polygon>
            <g id="Centre" transform="translate(380.000000, 13.000000)" fill="#FFFFFF">
                <polygon id="Fill-1" points="220.1892 144.654368 238.4232 200.773368 297.4302 200.773368 249.6922 235.456368 267.9272 291.575368 220.1892 256.892368 172.4512 291.575368 190.6862 235.456368 142.9482 200.773368 201.9552 200.773368"></polygon>
                <path d="M219.933,135.721368 C240.499,135.487368 259.388,142.535368 276.795,155.590368 C286.437,162.821368 295.015,171.290368 301.604,181.378368 C304.422,185.694368 304.442,190.009368 304.362,190.089368 C304.276,247.822368 304.349,305.556368 304.2,363.289368 C304.189,367.556368 304.225,369.171368 304.253,369.115368 L440.101,417.618368 C433.206,411.059368 426.576,404.241368 419.819,397.838368 C402.907,381.815368 383.976,363.668368 366.952,347.765368 C365.769,346.582368 366.276,346.159368 366.614,345.230368 C381.76,312.367368 395.08,276.351368 401.916,240.722368 C408.888,204.387368 409.952,168.153368 398.945,132.336368 C386.23,90.9613684 359.833,60.2123684 324.037,36.8393684 C299.147,20.5873684 272.299,8.34936844 243.808,0.374368444 C240.984,-0.416631556 240.118,-0.148631556 239.296,3.09436844 C233.561,28.4333684 227.564,53.7133684 221.634,79.0083684 C221.26,80.6033684 220.78,82.1743684 220.067,84.7953684 L220.034,84.7953684 C219.32,82.1743684 218.84,80.6033684 218.466,79.0083684 C212.537,53.7133684 206.54,28.4333684 200.805,3.09436844 C199.983,-0.148631556 199.117,-0.416631556 196.292,0.374368444 C167.802,8.34936844 140.954,20.5873684 116.064,36.8393684 C80.268,60.2123684 53.871,90.9613684 41.156,132.336368 C30.149,168.153368 31.213,204.387368 38.184,240.722368 C45.02,276.351368 58.341,312.367368 73.487,345.230368 C73.825,346.159368 74.332,346.582368 73.149,347.765368 C56.125,363.668368 37.194,381.815368 20.282,397.838368 C13.524,404.241368 6.895,411.059368 0,417.618368 L135.848,369.115368 C135.876,369.171368 135.912,367.556368 135.901,363.289368 C135.752,305.556368 135.825,247.822368 135.739,190.089368 C135.659,190.009368 135.679,185.694368 138.497,181.378368 C145.086,171.290368 153.664,162.821368 163.306,155.590368 C180.712,142.535368 199.602,135.487368 220.168,135.721368" id="Fill-2"></path>
            </g>
        </g>
    </g>
</svg>