<svg width="44" height="41" viewBox="0 0 44 41" fill="none" xmlns="http://www.w3.org/2000/svg">
<path d="M43.5234 39.0697C43.4678 39.1946 43.4121 39.3206 43.3553 39.4455C42.9692 40.3097 42.3151 40.8003 41.3624 40.8684C41.2352 40.8775 41.108 40.8752 40.9797 40.8752C28.1726 40.8752 15.3667 40.8764 2.55958 40.8718C2.25184 40.8718 1.93047 40.8559 1.63749 40.773C0.582534 40.4766 -0.0920008 39.4614 0.0102015 38.377C0.113539 37.2845 0.997022 36.4033 2.10535 36.3318C2.6686 36.2954 3.23525 36.325 3.85301 36.325C3.86436 36.1376 3.87913 35.9888 3.88026 35.8401C3.88253 34.8203 3.87799 33.8006 3.88253 32.7797C3.8848 32.2471 4.12555 31.9552 4.53209 31.9677C4.92045 31.9791 5.15098 32.2675 5.15438 32.774C5.16006 33.7801 5.15666 34.7851 5.15666 35.7912C5.15666 35.9445 5.15666 36.0978 5.15666 36.2807C7.4846 36.2807 9.77052 36.2807 12.0951 36.2807C12.0951 36.1149 12.0951 35.9752 12.0951 35.8355C12.0951 33.4133 12.0951 30.99 12.0951 28.5678C12.0951 28.0023 12.0758 27.9807 11.5341 27.9807C9.59337 27.9796 7.65266 27.9796 5.71195 27.9807C5.18959 27.9807 5.1612 28.0136 5.15779 28.5337C5.15552 28.8596 5.1646 29.1856 5.15438 29.5115C5.13962 29.9884 4.90796 30.2541 4.52073 30.2575C4.12782 30.261 3.89502 29.9998 3.8848 29.5228C3.87572 29.1265 3.87686 28.7291 3.88367 28.3327C3.90184 27.3243 4.49234 26.7179 5.50301 26.71C7.06103 26.6964 8.62018 26.7055 10.1782 26.7055C10.6881 26.7055 11.1979 26.6998 11.7078 26.7066C12.7696 26.7225 13.3669 27.3153 13.368 28.3736C13.3737 30.8526 13.3703 33.3316 13.3703 35.8117C13.3703 35.9525 13.3703 36.0933 13.3703 36.2727C14.5899 36.2727 15.7823 36.2727 17.0099 36.2727C17.0099 36.091 17.0099 35.923 17.0099 35.7549C17.0099 30.7402 17.0099 25.7243 17.0099 20.7096C17.0099 19.4445 17.5822 18.8756 18.8586 18.8756C20.814 18.8745 22.7684 18.8733 24.7239 18.8756C25.9321 18.8768 26.5181 19.4673 26.5181 20.6789C26.5192 25.7084 26.5181 30.7368 26.5181 35.7663C26.5181 35.932 26.5181 36.0978 26.5181 36.2818C27.7456 36.2818 28.9278 36.2818 30.1576 36.2818C30.1576 36.074 30.1576 35.8934 30.1576 35.714C30.1576 29.2401 30.1576 22.7661 30.1576 16.291C30.1576 16.1355 30.1519 15.9788 30.1667 15.8243C30.1974 15.4802 30.3927 15.277 30.7356 15.2497C31.1013 15.2213 31.3318 15.4087 31.4056 15.7619C31.4397 15.9254 31.4317 16.1003 31.4317 16.2695C31.4329 22.7582 31.4329 29.2457 31.4329 35.7345C31.4329 35.9025 31.4329 36.0717 31.4329 36.275C33.7495 36.275 36.0342 36.275 38.3713 36.275C38.3713 36.1115 38.3713 35.9593 38.3713 35.8071C38.3713 27.8308 38.3713 19.8556 38.3713 11.8793C38.3713 11.2388 38.3667 11.2343 37.7376 11.2343C35.8253 11.2332 33.913 11.2332 31.9995 11.2343C31.4488 11.2343 31.434 11.2525 31.4317 11.8134C31.4306 12.153 31.4442 12.4948 31.4249 12.8332C31.4011 13.2647 31.1365 13.5123 30.7538 13.4952C30.3881 13.4782 30.1701 13.2375 30.1587 12.8093C30.1485 12.3983 30.1508 11.9872 30.1565 11.5772C30.1712 10.5745 30.7674 9.97607 31.7815 9.96131C32.5866 9.94995 33.3929 9.95904 34.2378 9.95904C34.2457 9.77734 34.2582 9.62745 34.2582 9.47868C34.2593 6.91454 34.2582 4.3504 34.2593 1.78626C34.2593 1.06289 34.4388 0.8812 35.1587 0.880064C37.029 0.878929 38.8993 0.885742 40.7685 0.875522C41.2613 0.873251 41.6701 0.985673 41.8916 1.46489C42.1141 1.94524 41.9336 2.33815 41.61 2.70381C41.3204 3.03199 41.0467 3.37494 40.7435 3.73832C41.0558 4.1142 41.3544 4.48553 41.6667 4.84665C41.9699 5.19868 42.0971 5.58251 41.8893 6.0197C41.6838 6.45123 41.3204 6.60907 40.8491 6.60566C39.2479 6.59544 37.6479 6.60226 36.0467 6.60226C35.8934 6.60226 35.7413 6.60226 35.5607 6.60226C35.5607 7.72194 35.5607 8.80642 35.5607 9.95904C35.7481 9.95904 35.94 9.95904 36.1319 9.95904C36.8121 9.96131 37.4923 9.942 38.1714 9.97039C39.0151 10.0056 39.5886 10.5972 39.6363 11.4376C39.6465 11.6215 39.6431 11.8055 39.6431 11.9895C39.6431 19.8942 39.6431 27.799 39.6431 35.7049C39.6431 35.8855 39.6431 36.0672 39.6431 36.3091C39.9917 36.3091 40.3006 36.3306 40.605 36.3057C42.0381 36.1842 43.0476 36.727 43.5211 38.1317C43.5234 38.4462 43.5234 38.7574 43.5234 39.0697ZM25.2224 36.2829C25.2303 36.1569 25.2417 36.0592 25.2417 35.9616C25.2428 30.8651 25.2383 25.7686 25.2508 20.6721C25.2519 20.2406 25.077 20.1441 24.6932 20.1463C22.7684 20.1577 20.8424 20.1509 18.9176 20.152C18.2965 20.152 18.2851 20.1656 18.2851 20.8004C18.2851 25.7981 18.2851 30.7958 18.2851 35.7924C18.2851 35.9457 18.2851 36.1001 18.2851 36.2829C20.6142 36.2829 22.9126 36.2829 25.2224 36.2829ZM21.76 37.5877C15.4144 37.5877 9.06873 37.5877 2.7231 37.5889C2.52551 37.5889 2.32452 37.5855 2.1292 37.6127C1.62613 37.6831 1.26729 38.1169 1.27978 38.62C1.29227 39.1253 1.66815 39.5352 2.17576 39.5875C2.34382 39.6045 2.51529 39.6 2.68563 39.6C15.4053 39.6 28.1249 39.6 40.8457 39.6C41.016 39.6 41.1864 39.6045 41.3556 39.5863C41.862 39.533 42.2368 39.1185 42.247 38.6143C42.2572 38.1124 41.8961 37.6808 41.3919 37.6116C41.1966 37.5855 40.9967 37.5877 40.798 37.5877C34.4512 37.5877 28.1056 37.5877 21.76 37.5877ZM35.5573 2.1803C35.5573 3.23526 35.5573 4.26069 35.5573 5.28839C37.1585 5.28839 38.7381 5.28839 40.3688 5.28839C40.136 5.01017 39.9452 4.78419 39.7555 4.55594C39.2559 3.95408 39.2548 3.53051 39.7499 2.9366C39.9452 2.70267 40.1405 2.46874 40.3824 2.1803C38.7313 2.1803 37.1664 2.1803 35.5573 2.1803Z" fill="#7159A6"/>
<path d="M26.6465 5.96742C26.0332 5.81866 25.5245 5.69829 25.0169 5.5711C24.5683 5.45754 24.3356 5.15207 24.4139 4.79323C24.4991 4.40486 24.8466 4.21749 25.3156 4.32991C26.3614 4.5786 27.405 4.83297 28.4486 5.09416C28.9812 5.22702 29.1504 5.50751 29.0244 6.03101C28.7689 7.08937 28.5043 8.14546 28.2499 9.20496C28.1772 9.50816 28.0262 9.72279 27.6991 9.76934C27.2336 9.83407 26.9008 9.45592 27.0076 8.96308C27.145 8.33056 27.3051 7.70259 27.4698 7.00761C27.2165 7.14047 27.0212 7.24154 26.827 7.34601C19.3004 11.3887 11.7738 15.4348 4.24712 19.4797C4.10972 19.5535 3.97458 19.6319 3.8315 19.6909C3.49537 19.8306 3.15129 19.7114 2.99798 19.4104C2.83559 19.0913 2.94234 18.7427 3.29437 18.5474C4.01206 18.1499 4.73883 17.7684 5.46106 17.38C12.3767 13.6621 19.2936 9.94536 26.2093 6.22747C26.3285 6.16274 26.4432 6.08893 26.6465 5.96742Z" fill="#7159A6"/>
</svg>
