<svg width="40" height="41" viewBox="0 0 40 41" fill="none" xmlns="http://www.w3.org/2000/svg">
<path d="M24.3738 0.875488C24.5815 0.940193 24.7923 0.997592 24.9979 1.07065C26.483 1.5935 27.3899 2.89386 27.3951 4.5553C27.4024 6.80744 27.3878 9.05958 27.3836 11.3117C27.3836 11.3618 27.392 11.4119 27.4003 11.51C27.56 11.51 27.7113 11.51 27.8637 11.51C30.7671 11.51 33.6704 11.51 36.5738 11.51C37.3753 11.51 37.6539 11.7887 37.6539 12.5881C37.6539 18.8895 37.6539 25.1909 37.6539 31.4923C37.6539 32.3167 37.3836 32.5829 36.5467 32.5829C25.5187 32.5829 14.4918 32.5829 3.46379 32.5829C2.6101 32.5829 2.34398 32.3178 2.34398 31.4662C2.34398 30.8932 2.34189 30.3203 2.34502 29.7473C2.34711 29.2913 2.56523 29.0178 2.92215 29.0126C3.28115 29.0074 3.51179 29.2819 3.51492 29.7317C3.5191 30.2754 3.51597 30.8202 3.51597 31.3869C4.78084 31.3869 6.01232 31.3869 7.29493 31.3869C7.30119 31.2418 7.31371 31.0915 7.31476 30.9423C7.3158 29.2495 7.31267 27.5568 7.31684 25.8651C7.32206 23.6129 8.46692 22.0412 10.6053 21.3263C12.3555 20.7409 14.1025 20.1481 15.8506 19.5563C16.3859 19.3748 16.46 19.2036 16.5216 18.6453C16.6061 17.8803 16.3818 17.3981 15.6909 16.9462C14.2622 16.0122 13.3709 14.6211 12.8971 12.9773C12.8397 12.7791 12.775 12.6757 12.5371 12.6768C9.6076 12.6862 6.67815 12.683 3.7487 12.6841C3.68608 12.6841 3.62346 12.6935 3.51701 12.7018C3.51701 12.8709 3.51701 13.0233 3.51701 13.1746C3.51701 17.6277 3.51701 22.0798 3.51701 26.533C3.51701 26.6759 3.53267 26.8241 3.5024 26.9609C3.4377 27.2614 3.24671 27.443 2.92736 27.4409C2.60802 27.4388 2.42329 27.2541 2.35755 26.9546C2.3325 26.8419 2.34607 26.7208 2.34607 26.6039C2.34607 21.9295 2.34502 17.2562 2.34607 12.5818C2.34607 11.7845 2.62367 11.5111 3.43352 11.5111C6.32436 11.51 9.21415 11.5111 12.105 11.5111C12.2605 11.5111 12.4149 11.5111 12.5944 11.5111C12.5944 11.1197 12.5944 10.7523 12.5944 10.3391C12.4358 10.3391 12.3095 10.3391 12.1833 10.3391C9.16302 10.3391 6.14172 10.338 3.12148 10.3391C1.89522 10.3401 1.17616 11.056 1.17512 12.276C1.17408 18.7862 1.17408 25.2952 1.17512 31.8054C1.17512 33.0295 1.89209 33.7548 3.10895 33.7548C14.3707 33.7559 25.6324 33.7559 36.8942 33.7548C38.1121 33.7548 38.827 33.0327 38.827 31.8043C38.828 25.2942 38.828 18.7851 38.827 12.275C38.827 11.055 38.1069 10.3401 36.8796 10.3391C34.5356 10.338 32.1927 10.3391 29.8487 10.338C29.7182 10.338 29.5857 10.3474 29.4594 10.3265C29.1693 10.2775 28.9939 10.1032 28.971 9.80369C28.948 9.50521 29.0868 9.29649 29.3697 9.20987C29.5022 9.16916 29.6514 9.16916 29.7934 9.16916C32.1499 9.16708 34.5064 9.16603 36.8629 9.16812C38.7591 9.16916 39.999 10.4027 39.999 12.2927C40 18.8029 40.001 25.3119 39.999 31.8221C39.999 33.6839 38.7518 34.9258 36.8827 34.9268C32.3909 34.9289 27.8992 34.9279 23.4074 34.9279C23.2519 34.9279 23.0975 34.9279 22.9096 34.9279C22.9096 35.7325 22.9096 36.5184 22.9096 37.3595C23.1413 37.3595 23.3834 37.3553 23.6255 37.3606C25.0626 37.3867 26.2002 38.4658 26.3014 39.8987C26.3431 40.4873 25.9998 40.8724 25.3997 40.8724C21.8065 40.8765 18.2133 40.8765 14.6191 40.8724C13.9835 40.8713 13.6381 40.4716 13.7038 39.8381C13.8531 38.3927 14.9739 37.3741 16.435 37.3595C16.6521 37.3574 16.8702 37.3595 17.105 37.3595C17.105 36.5413 17.105 35.7649 17.105 34.9279C16.9516 34.9279 16.8013 34.9279 16.651 34.9279C12.2897 34.9279 7.92841 34.9279 3.56606 34.9279C1.47151 34.9279 0.70549 34.3925 0 32.4378C0 25.5113 0 18.5847 0 11.6582C0.0135671 11.6363 0.0323523 11.6154 0.0396577 11.5914C0.53851 9.89031 1.50595 9.16812 3.29054 9.16812C6.23148 9.16812 9.17345 9.16812 12.1144 9.16812C12.2657 9.16812 12.417 9.16812 12.5997 9.16812C12.5997 8.97505 12.5997 8.83416 12.5997 8.69431C12.5997 7.31464 12.5944 5.93497 12.6018 4.5553C12.6091 3.14015 13.1956 2.03808 14.4364 1.33468C14.8017 1.12805 15.2265 1.02681 15.6241 0.877576C18.541 0.875488 21.4579 0.875488 24.3738 0.875488ZM28.3125 25.1335C28.3626 25.1554 28.4826 25.2034 28.5984 25.2618C29.6713 25.7983 30.2755 27.013 30.0397 28.16C29.7631 29.5073 28.6318 30.3933 27.2553 30.3391C25.9424 30.2869 24.8894 29.2798 24.7224 27.9147C24.57 26.6676 25.4081 25.4497 26.6875 25.0865C26.914 25.0228 27.0361 24.9195 27.0956 24.692C27.3273 23.8018 27.3429 22.9147 27.0445 22.0402C26.9923 21.8868 26.8305 21.7167 26.6792 21.6603C25.9247 21.3796 25.1534 21.1427 24.3957 20.8703C24.1672 20.7878 24.0232 20.8233 23.852 20.9965C22.8929 21.9713 21.9224 22.9335 20.9539 23.8978C20.3381 24.5104 19.784 24.5073 19.1641 23.8895C18.1862 22.9158 17.2083 21.9421 16.2388 20.96C16.0833 20.8024 15.9539 20.7523 15.7305 20.8327C15.047 21.08 14.3477 21.2846 13.6663 21.5392C13.517 21.5956 13.3511 21.7709 13.3093 21.9233C13.11 22.6476 13.0975 23.3844 13.2457 24.1264C13.2958 24.3768 13.3939 24.4916 13.6527 24.5563C14.809 24.8454 15.7337 25.8369 15.8391 26.988C15.9142 27.8145 15.8819 28.6526 15.8599 29.4854C15.8485 29.9352 15.478 30.2858 15.0303 30.3307C14.785 30.3558 14.5356 30.3547 14.2893 30.3359C13.9699 30.3119 13.7894 30.1043 13.7696 29.8006C13.7497 29.4927 13.9188 29.2798 14.2246 29.2057C14.3707 29.1702 14.5252 29.1681 14.7005 29.1472C14.7005 28.5294 14.7172 27.9325 14.6963 27.3366C14.666 26.4839 14.0054 25.7607 13.1841 25.6459C12.2772 25.5196 11.3682 26.0206 11.1929 26.893C11.0457 27.6267 11.0927 28.4 11.0541 29.1619C11.2534 29.1723 11.3578 29.1702 11.46 29.1838C11.8222 29.2307 12.0497 29.4833 12.0278 29.8058C12.0069 30.1136 11.7742 30.3255 11.4225 30.3453C11.267 30.3537 11.1104 30.3516 10.9539 30.3464C10.2985 30.3245 9.92277 29.9456 9.91651 29.2861C9.91025 28.6484 9.90607 28.0097 9.9186 27.372C9.93738 26.3963 10.3548 25.6125 11.1334 25.0385C11.4214 24.8256 11.7637 24.6858 12.0382 24.5355C12.0382 23.7277 12.0382 22.9304 12.0382 22.0871C11.6333 22.2186 11.2764 22.3313 10.9215 22.4514C9.32582 22.9899 8.49301 24.1399 8.48779 25.8233C8.48257 27.5547 8.4857 29.2861 8.48779 31.0174C8.48779 31.1416 8.50553 31.2648 8.51493 31.39C16.1929 31.39 23.8291 31.39 31.4799 31.39C31.4913 31.2815 31.5091 31.1928 31.5091 31.1051C31.5101 29.2954 31.5122 27.4858 31.506 25.6762C31.5049 25.4434 31.4882 25.2055 31.4371 24.979C31.0687 23.3437 29.9029 22.5933 28.4387 22.2583C28.398 23.1892 28.3563 24.1285 28.3125 25.1335ZM36.4621 31.389C36.4621 25.1523 36.4621 18.9375 36.4621 12.7029C33.3646 12.7029 30.287 12.7029 27.2083 12.7029C27.1718 12.8218 27.1394 12.9199 27.1102 13.0201C26.6249 14.6941 25.694 16.0759 24.2371 17.0235C23.6287 17.419 23.4116 17.826 23.4742 18.5211C23.5389 19.2433 23.588 19.3758 24.2882 19.6096C26.0019 20.1815 27.7155 20.7523 29.425 21.3347C31.5665 22.0652 32.679 23.6286 32.6832 25.8964C32.6863 27.5756 32.6842 29.2547 32.6842 30.9339C32.6842 31.0853 32.6842 31.2355 32.6842 31.389C33.9793 31.389 35.2108 31.389 36.4621 31.389ZM13.7153 9.13055C13.779 10.1752 13.7529 11.1729 13.9146 12.1393C14.3665 14.8454 16.7502 16.989 19.4333 17.1957C22.32 17.419 24.9228 15.7388 25.8714 13.0671C26.3108 11.8294 26.219 10.553 26.2106 9.28188C26.2106 9.21195 26.029 9.0982 25.9194 9.08046C24.3216 8.82581 22.9587 8.1318 21.8639 6.93268C21.7877 6.84919 21.7606 6.71978 21.722 6.6342C19.2183 8.21529 16.627 9.01366 13.7153 9.13055ZM26.2263 7.91786C26.2263 6.76883 26.2283 5.67824 26.2242 4.58766C26.2242 4.41963 26.2096 4.24952 26.1856 4.08254C26.028 2.95334 25.0898 2.06626 23.9564 2.05687C21.316 2.036 18.6746 2.036 16.0342 2.05687C14.9176 2.06626 13.9512 2.94291 13.8249 4.05019C13.7529 4.68054 13.78 5.32237 13.7737 5.95898C13.7664 6.60602 13.7717 7.25307 13.7717 7.96482C14.3561 7.90742 14.8977 7.87716 15.4321 7.7968C17.4379 7.49519 19.2956 6.79283 21.0061 5.69912C21.6489 5.28793 22.0465 5.35889 22.536 5.92454C22.7395 6.1604 22.9535 6.39104 23.1883 6.59454C24.0451 7.33447 25.0324 7.78428 26.2263 7.91786ZM22.9274 20.2097C22.2594 19.643 22.3033 18.8467 22.3168 18.0274C20.7451 18.5002 19.2382 18.5033 17.6884 18.0222C17.6946 18.831 17.7301 19.597 17.1958 20.1042C18.1883 21.102 19.1547 22.0725 20.1096 23.0327C21.0113 22.1299 21.9464 21.1927 22.9274 20.2097ZM25.0637 39.6847C24.8497 38.975 24.3488 38.5659 23.6704 38.5346C23.3333 38.519 22.9952 38.5294 22.6571 38.5294C20.5907 38.5294 18.5233 38.5252 16.4569 38.5315C15.6669 38.5336 15.1044 38.9709 14.952 39.6847C18.3166 39.6847 21.6781 39.6847 25.0637 39.6847ZM18.3145 37.3355C19.4615 37.3355 20.5625 37.3355 21.6771 37.3355C21.6771 36.5288 21.6771 35.744 21.6771 34.9571C20.5416 34.9571 19.4323 34.9571 18.3145 34.9571C18.3145 35.7628 18.3145 36.5371 18.3145 37.3355ZM27.3795 29.1713C28.2258 29.1786 28.9021 28.5211 28.9094 27.683C28.9167 26.8388 28.2592 26.1667 27.417 26.1573C26.5821 26.1479 25.8923 26.8147 25.8777 27.6465C25.8641 28.471 26.5456 29.1639 27.3795 29.1713Z" fill="#7159A6"/>
</svg>
