<svg width="48" height="47" viewBox="0 0 48 47" fill="none" xmlns="http://www.w3.org/2000/svg">
<g clip-path="url(#clip0_2_385)">
<path d="M46.4635 40.9551L37.954 32.4455C38.1879 32.0894 38.1484 31.6064 37.8353 31.2933C37.5222 30.9803 37.039 30.9407 36.683 31.1746L34.4123 28.9038C36.1095 26.3843 37.1779 23.4659 37.487 20.4222C37.9103 16.2536 36.9022 12.0279 34.6486 8.52334C34.3744 8.09694 33.8065 7.97366 33.3802 8.24777C32.9539 8.52196 32.8305 9.08991 33.1046 9.51622C37.3191 16.0698 36.3726 24.832 30.854 30.3505C24.341 36.8635 13.7436 36.8635 7.23056 30.3505C0.717575 23.8376 0.717575 13.2402 7.23056 6.72715C12.755 1.20272 21.2382 0.224076 27.8601 4.34677C28.2902 4.61454 28.8563 4.48308 29.1243 4.05274C29.3923 3.62249 29.2605 3.05647 28.8303 2.78851C25.3358 0.612927 21.1451 -0.339006 17.0296 0.107769C12.8513 0.561521 8.91035 2.45144 5.93246 5.42914C-1.29617 12.6579 -1.29617 24.4199 5.93246 31.6485C9.54687 35.2629 14.2945 37.0701 19.0422 37.0701C22.6593 37.0701 26.2757 36.0199 29.3915 33.9222L31.6509 36.1816C31.3114 36.5412 31.3169 37.1077 31.6688 37.4597C31.8481 37.639 32.0829 37.7286 32.3178 37.7286C32.5444 37.7286 32.7704 37.6444 32.947 37.4777L41.444 45.9747C42.1279 46.6586 43.0269 47 43.9285 47C44.8383 47 45.7506 46.652 46.4458 45.9568C47.8296 44.5729 47.8376 42.3291 46.4635 40.9551ZM31.2855 33.2203L33.7091 30.7967L35.3715 32.4591L32.9479 34.8827L31.2855 33.2203ZM45.1477 44.6588C44.4794 45.327 43.4003 45.3351 42.742 44.6766L34.2459 36.1805L36.6695 33.7569L45.1655 42.253C45.8239 42.9115 45.8159 43.9906 45.1477 44.6588Z" fill="#7159A6"/>
<path d="M32.1739 5.451L32.154 5.43108C31.7967 5.0716 31.2156 5.06986 30.856 5.42713C30.4965 5.7844 30.4947 6.36557 30.8521 6.72514L30.8759 6.7491C31.0552 6.92838 31.29 7.01797 31.5249 7.01797C31.7598 7.01797 31.9947 6.92838 32.1739 6.7491C32.5323 6.39072 32.5323 5.80956 32.1739 5.451Z" fill="#7159A6"/>
<path d="M19.0421 4.4045C11.2484 4.4045 4.90771 10.7452 4.90771 18.5389C4.90771 26.3327 11.2484 32.6733 19.0421 32.6733C26.8359 32.6733 33.1766 26.3327 33.1766 18.5389C33.1766 10.7452 26.8359 4.4045 19.0421 4.4045ZM19.0421 30.8377C12.2606 30.8377 6.74338 25.3205 6.74338 18.5389C6.74338 11.7573 12.2606 6.24016 19.0421 6.24016C25.8237 6.24016 31.3409 11.7573 31.3409 18.5389C31.3409 25.3205 25.8237 30.8377 19.0421 30.8377Z" fill="#7159A6"/>
<path d="M22.535 17.3462C23.1067 16.603 23.4478 15.6737 23.4478 14.6656V13.4635C23.4478 11.0343 21.4715 9.05796 19.0423 9.05796C16.6131 9.05796 14.6368 11.0343 14.6368 13.4635V14.6656C14.6368 15.6737 14.9778 16.6031 15.5496 17.3462C12.6305 17.8967 10.4148 20.4642 10.4148 23.541V24.0152C10.4148 24.5222 10.8257 24.933 11.3326 24.933H26.7519C27.2588 24.933 27.6697 24.5222 27.6697 24.0152V23.541C27.6699 20.4643 25.4542 17.8968 22.535 17.3462ZM16.4725 13.4635C16.4725 12.0465 17.6253 10.8936 19.0423 10.8936C20.4593 10.8936 21.6122 12.0465 21.6122 13.4635V14.6656C21.6122 16.0826 20.4593 17.2355 19.0423 17.2355C17.6253 17.2355 16.4725 16.0826 16.4725 14.6656V13.4635ZM12.2723 23.0974C12.4957 20.8402 14.4053 19.0712 16.7203 19.0712H21.3644C23.6794 19.0712 25.589 20.8402 25.8124 23.0974H12.2723Z" fill="#7159A6"/>
<path d="M41.1026 1.10037C40.5957 1.10037 40.1848 1.51126 40.1848 2.01816V3.15901C40.1848 3.66582 40.5957 4.07679 41.1026 4.07679C41.6095 4.07679 42.0204 3.66591 42.0204 3.15901V2.01825C42.0204 1.51126 41.6095 1.10037 41.1026 1.10037Z" fill="#7159A6"/>
<path d="M41.1026 6.56779C40.5957 6.56779 40.1848 6.97868 40.1848 7.48558V8.62643C40.1848 9.13333 40.5957 9.54422 41.1026 9.54422C41.6095 9.54422 42.0204 9.13333 42.0204 8.62643V7.48567C42.0204 6.97877 41.6095 6.56779 41.1026 6.56779Z" fill="#7159A6"/>
<path d="M44.4063 4.4045H43.2654C42.7585 4.4045 42.3477 4.81539 42.3477 5.32229C42.3477 5.82919 42.7585 6.24007 43.2654 6.24007H44.4063C44.9132 6.24007 45.3241 5.82919 45.3241 5.32229C45.3241 4.81539 44.9132 4.4045 44.4063 4.4045Z" fill="#7159A6"/>
<path d="M38.9385 4.4045H37.7977C37.2908 4.4045 36.8799 4.81539 36.8799 5.32229C36.8799 5.82919 37.2908 6.24007 37.7977 6.24007H38.9385C39.4454 6.24007 39.8563 5.82919 39.8563 5.32229C39.8563 4.81539 39.4455 4.4045 38.9385 4.4045Z" fill="#7159A6"/>
<path d="M6.18536 37.8211C5.67846 37.8211 5.26758 38.2319 5.26758 38.7388V39.8797C5.26758 40.3866 5.67846 40.7975 6.18536 40.7975C6.69227 40.7975 7.10315 40.3866 7.10315 39.8797V38.7388C7.10315 38.2319 6.69227 37.8211 6.18536 37.8211Z" fill="#7159A6"/>
<path d="M6.18536 43.2885C5.67846 43.2885 5.26758 43.6994 5.26758 44.2063V45.3471C5.26758 45.854 5.67846 46.2649 6.18536 46.2649C6.69227 46.2649 7.10315 45.854 7.10315 45.3471V44.2063C7.10315 43.6994 6.69227 43.2885 6.18536 43.2885Z" fill="#7159A6"/>
<path d="M9.48954 41.1252H8.34869C7.84179 41.1252 7.43091 41.5361 7.43091 42.043C7.43091 42.5499 7.84179 42.9608 8.34869 42.9608H9.48954C9.99645 42.9608 10.4073 42.5499 10.4073 42.043C10.4073 41.5361 9.99645 41.1252 9.48954 41.1252Z" fill="#7159A6"/>
<path d="M4.02202 41.1252H2.88116C2.37426 41.1252 1.96338 41.5361 1.96338 42.043C1.96338 42.5499 2.37426 42.9608 2.88116 42.9608H4.02202C4.52892 42.9608 4.9398 42.5499 4.9398 42.043C4.9398 41.5361 4.52892 41.1252 4.02202 41.1252Z" fill="#7159A6"/>
</g>
<defs>
<clipPath id="clip0_2_385">
<rect width="47" height="47" fill="white" transform="translate(0.5)"/>
</clipPath>
</defs>
</svg>
