<svg width="50" height="51" viewBox="0 0 50 51" fill="none" xmlns="http://www.w3.org/2000/svg">
<path d="M15.9239 50.4541C14.0939 50.1794 12.781 49.0792 11.5853 47.7717C11.0588 47.1954 10.4838 46.6635 9.93175 46.1115C7.26291 43.4426 4.59271 40.7724 1.92387 38.1022C-0.561848 35.6152 -0.568581 32.2178 1.90502 29.7321C3.02938 28.6024 4.15509 27.4753 5.24983 26.3779C7.2454 28.3708 9.21809 30.3434 11.2554 32.3781C10.6925 32.9261 10.0893 33.5105 9.49009 34.1003C9.03765 34.546 8.58386 34.989 8.14624 35.4482C7.82441 35.7848 7.76651 36.2453 8.06275 36.551C8.96628 37.4788 9.89944 38.3769 10.8609 39.3235C10.9847 38.9694 11.0911 38.6503 11.2096 38.3352C11.9839 36.2777 13.4503 35.0335 15.6101 34.6255C17.2381 34.3171 18.8714 34.0316 20.5021 33.734C20.6287 33.7111 20.7512 33.6734 21.034 33.6021C20.8589 33.3718 20.766 33.1604 20.6058 33.0527C18.8082 31.8529 17.6394 30.2155 17.0927 28.1243C17.0536 27.9722 16.8961 27.7931 16.7506 27.7365C15.2331 27.1562 14.4642 26.0776 14.4615 24.4671C14.4588 22.6614 14.4534 20.8544 14.4629 19.0487C14.4885 13.6558 18.3948 9.25526 23.75 8.58064C29.4728 7.85889 34.9236 12.2311 35.3504 17.9741C35.5026 20.0141 35.4218 22.0716 35.4366 24.1211C35.4474 25.5525 35.4406 26.9852 35.4379 28.4165C35.4339 30.0943 34.4361 31.1487 32.7758 31.084C31.8548 31.049 31.1411 31.1998 30.5581 31.9943C30.2336 32.436 29.6801 32.7053 29.2479 33.0742C29.1105 33.1914 29.0298 33.3745 28.8601 33.6169C29.8808 33.8081 30.7695 33.9737 31.6582 34.1393C32.6641 34.3279 33.6807 34.4719 34.6745 34.7116C36.5785 35.1708 37.9304 36.3356 38.6104 38.1669C39.2998 40.0237 39.8842 41.9197 40.5117 43.7994C40.5265 43.8425 40.5131 43.8937 40.5131 43.992C34.8118 43.992 29.1146 43.992 23.416 43.992C23.3985 44.0243 23.381 44.058 23.3622 44.0903C23.7648 44.4283 24.1674 44.7663 24.6198 45.1446C22.938 46.6528 21.4056 48.0599 19.8329 49.4213C19.1165 50.042 18.1887 50.2373 17.2866 50.4514C16.8355 50.454 16.3803 50.4541 15.9239 50.4541ZM18.5335 39.2441C19.4895 40.2042 20.4146 41.1185 21.3195 42.0516C21.5538 42.2927 21.7907 42.3896 22.1274 42.3896C27.3331 42.3802 32.5402 42.3829 37.7459 42.3829C37.9196 42.3829 38.0933 42.3829 38.3384 42.3829C37.9358 41.1696 37.5803 40.0251 37.175 38.8967C36.635 37.3939 35.5524 36.4985 33.985 36.2036C32.6762 35.9572 31.335 35.8293 30.0599 35.4657C28.8534 35.1223 28.0293 35.3876 27.2537 36.3517C26.5777 37.192 25.7375 37.9002 24.9551 38.6799C24.8057 38.5385 24.6858 38.4294 24.5714 38.3163C23.6153 37.363 22.6687 36.3988 21.6978 35.4617C21.5618 35.3297 21.2952 35.2354 21.1134 35.2651C19.3508 35.5626 17.5909 35.8723 15.8363 36.2157C14.3121 36.5133 13.2685 37.4128 12.7245 38.8724C12.5481 39.3437 12.4134 39.8298 12.2384 40.3011C12.1482 40.5448 12.1751 40.7118 12.3757 40.8976C12.8295 41.3178 13.2537 41.7675 13.6926 42.2038C14.273 42.7815 14.6123 42.7868 15.2317 42.228C16.3171 41.2491 17.401 40.2675 18.5335 39.2441ZM24.9336 17.0329C26.0189 18.1734 27.1177 19.1941 28.5302 19.8296C29.9535 20.4706 31.4508 20.6457 33.0115 20.6228C33.0115 20.958 33.0115 21.2327 33.0115 21.5182C33.2781 21.6192 33.5232 21.7121 33.7171 21.7848C33.7171 20.4073 33.8854 19.0352 33.6847 17.7183C33.13 14.0759 31.0092 11.6036 27.496 10.5358C23.9923 9.4707 20.9088 10.4092 18.384 13.0552C16.0222 15.5315 15.9037 18.6151 16.1353 21.8091C16.3857 21.7108 16.6241 21.6179 16.8718 21.5209C16.8853 21.2274 16.8988 20.9419 16.9163 20.5999C20.2113 20.7992 22.833 19.5119 24.9336 17.0329ZM18.4944 22.209C18.4944 23.6552 18.4405 25.0542 18.5065 26.4479C18.6277 28.9983 19.8396 30.9238 22.1341 32.0455C24.3748 33.1402 26.579 32.9086 28.6541 31.523C28.8022 31.4234 28.9341 31.3008 29.0742 31.1877C29.0567 31.1527 29.0378 31.1177 29.0203 31.0827C27.6778 31.0827 26.3353 31.0827 24.982 31.0827C24.982 30.5266 24.982 30.0176 24.982 29.4749C25.2002 29.4749 25.3779 29.4749 25.5543 29.4749C27.0678 29.4749 28.5814 29.4628 30.0935 29.4844C30.4423 29.4897 30.616 29.3672 30.756 29.0642C31.1721 28.1634 31.3929 27.2249 31.3943 26.2338C31.3956 25.03 31.3849 23.8262 31.4024 22.6224C31.4077 22.2898 31.2933 22.1726 30.9661 22.1403C29.5549 22.0057 28.2272 21.5761 27.014 20.8503C26.2922 20.4181 25.623 19.8983 24.8905 19.3893C23.1252 21.0335 20.9774 21.9801 18.4944 22.209ZM3.27714 30.6828C1.30042 32.2677 1.11864 34.9621 2.8853 36.7866C3.1573 37.0667 3.43603 37.3401 3.71208 37.6161C7.03669 40.9394 10.3559 44.2694 13.6873 47.5859C15.4997 49.3889 18.2951 49.2179 19.8006 47.2924C18.5725 46.0603 17.3525 44.8336 16.1272 43.6042C14.8991 44.5629 13.6967 44.4889 12.5575 43.3524C10.7397 41.5359 8.91107 39.7288 7.11613 37.8908C6.78892 37.5555 6.51692 37.1125 6.36342 36.6695C6.06179 35.7942 6.37823 35.0133 6.92762 34.3615C5.70092 33.1241 4.49038 31.9054 3.27714 30.6828ZM21.174 46.098C21.4959 45.7937 21.8204 45.4867 22.0991 45.2241C20.8589 43.9731 19.6605 42.7626 18.4271 41.5171C18.1053 41.8092 17.7659 42.1163 17.4616 42.3936C18.7206 43.65 19.9258 44.8538 21.174 46.098ZM4.50923 29.444C5.73458 30.6787 6.94378 31.896 8.11931 33.0796C8.394 32.8197 8.68082 32.5491 8.90569 32.3363C7.68707 31.115 6.47787 29.9018 5.25252 28.6724C5.0263 28.9067 4.76911 29.1733 4.50923 29.444ZM22.732 34.0249C23.5009 34.7965 24.259 35.5573 24.9524 36.2521C25.6809 35.5249 26.4457 34.7601 27.2012 34.0047C25.7321 34.4342 24.2159 34.4221 22.732 34.0249ZM33.7467 27.4551C33.4289 27.6248 32.998 27.7123 32.8566 27.9628C32.6116 28.3977 32.5442 28.935 32.4015 29.4305C33.6861 29.6055 34.0281 29.1194 33.7467 27.4551ZM16.8651 23.3845C16.4477 23.5097 16.1555 23.9177 16.1003 24.4577C16.0316 25.1323 16.2942 25.6548 16.8651 25.9429C16.8651 25.0825 16.8651 24.2328 16.8651 23.3845ZM33.0317 26.0143C33.6497 25.5861 33.8746 25.0637 33.7911 24.42C33.7305 23.9433 33.4935 23.5717 33.0317 23.2956C33.0317 24.2275 33.0317 25.0798 33.0317 26.0143Z" fill="#666666"/>
<path d="M37.5643 16.5886C37.8471 14.9269 38.111 13.3757 38.3884 11.7518C37.7784 11.7518 37.1981 11.7518 36.6177 11.7518C34.7703 11.7504 33.8115 10.7998 33.8102 8.9658C33.8088 7.01332 33.8075 5.06083 33.8115 3.10834C33.8142 1.46018 34.8147 0.457003 36.4508 0.455656C40.0783 0.45431 43.7073 0.452963 47.3348 0.455656C48.9359 0.457003 49.931 1.43594 49.9377 3.03294C49.9471 5.08237 49.9485 7.13316 49.9377 9.18259C49.9283 10.75 48.9305 11.8218 47.3685 11.7222C45.9075 11.6293 44.7091 12.0386 43.5201 12.8546C41.7386 14.0759 39.8669 15.1666 38.0329 16.3125C37.9144 16.3893 37.7879 16.4593 37.5643 16.5886ZM39.7807 13.2303C39.8683 13.2236 39.906 13.233 39.9289 13.2182C40.8957 12.6176 41.9137 12.0857 42.8132 11.3977C44.1584 10.3702 45.6072 9.92589 47.2931 10.1117C48.0633 10.1965 48.338 9.85586 48.3394 9.06544C48.3421 7.0968 48.3407 5.1295 48.3394 3.16086C48.338 2.33678 48.0835 2.07555 47.2662 2.0742C43.6709 2.07151 40.077 2.07151 36.4817 2.0742C35.6859 2.0742 35.4408 2.3287 35.4408 3.13258C35.4382 5.10123 35.4395 7.06852 35.4408 9.03717C35.4422 9.89357 35.6778 10.1265 36.5464 10.1265C37.7798 10.1279 39.0119 10.1265 40.2978 10.1265C40.1214 11.1809 39.9545 12.1854 39.7807 13.2303Z" fill="#666666"/>
<path d="M4.66508 20.3951C5.41107 19.9508 6.08972 19.5455 6.79397 19.1254C7.07405 19.5926 7.33124 20.0208 7.6194 20.5002C6.0399 21.4481 4.48734 22.3813 2.89977 23.336C1.95584 21.7646 1.02807 20.2214 0.0693359 18.6231C0.516388 18.3497 0.952667 18.0845 1.44146 17.7855C1.94238 18.6123 2.43252 19.4216 2.95498 20.2834C6.22707 6.66041 20.2715 0.139113 31.6215 3.91886C31.472 4.40496 31.3212 4.89241 31.1718 5.37985C18.6193 1.41294 6.85321 10.1587 4.66508 20.3951Z" fill="#666666"/>
<path d="M44.8194 18.6459C44.2996 19.505 43.8553 20.2389 43.384 21.0199C42.9234 20.7466 42.4845 20.4853 42.0024 20.1999C42.9531 18.615 43.8849 17.0611 44.8342 15.4789C46.415 16.4268 47.9582 17.3533 49.5498 18.308C49.2778 18.7671 49.0179 19.2061 48.7297 19.6922C47.9595 19.233 47.2122 18.7873 46.4096 18.3093C48.7163 26.1098 47.4196 33.198 42.5356 39.6709C42.4104 39.586 42.3431 39.547 42.2825 39.4971C41.9539 39.2332 41.6267 38.9666 41.2712 38.6771C45.8239 32.6419 47.0371 26.021 44.8194 18.6459Z" fill="#666666"/>
<path d="M46.691 3.72107C46.691 4.23141 46.691 4.72828 46.691 5.26151C43.4835 5.26151 40.2949 5.26151 37.0713 5.26151C37.0713 4.75252 37.0713 4.25834 37.0713 3.72107C40.2639 3.72107 43.466 3.72107 46.691 3.72107Z" fill="#666666"/>
<path d="M43.4663 6.93384C43.4663 7.46303 43.4663 7.96125 43.4663 8.49044C41.3239 8.49044 39.2031 8.49044 37.0608 8.49044C37.0608 7.95721 37.0608 7.46034 37.0608 6.93384C39.1924 6.93384 41.2997 6.93384 43.4663 6.93384Z" fill="#666666"/>
<path d="M46.683 8.49727C46.1606 8.49727 45.665 8.49727 45.1426 8.49727C45.1426 7.9775 45.1426 7.48063 45.1426 6.94336C45.6381 6.94336 46.1444 6.94336 46.683 6.94336C46.683 7.45505 46.683 7.96269 46.683 8.49727Z" fill="#666666"/>
</svg>
