<svg width="40" height="37" viewBox="0 0 40 37" fill="none" xmlns="http://www.w3.org/2000/svg">
<path d="M39.9984 27.048C39.9122 27.2889 39.8416 27.5368 39.7373 27.769C39.4157 28.4862 38.8911 29.0023 38.1673 29.3198C33.7419 31.2624 29.318 33.2073 24.8934 35.1514C23.7045 35.6738 22.5352 36.2455 21.2373 36.4707C18.7074 36.9102 16.35 36.4527 14.1534 35.1389C12.8821 34.3788 11.6086 33.621 10.3397 32.8554C9.57818 32.3955 8.73514 32.1922 7.8717 32.0569C7.7823 32.0428 7.62545 32.1296 7.57918 32.2125C7.06551 33.1369 6.28207 33.5373 5.23277 33.5217C3.80077 33.5005 2.36876 33.5177 0.936762 33.5154C0.288988 33.5146 0.00196057 33.2347 0.00117634 32.595C-0.000392115 28.0123 -0.000392115 23.4296 0.00117634 18.8461C0.00117634 18.2353 0.299183 17.9389 0.915588 17.9366C2.30838 17.9311 3.70195 17.9585 5.09475 17.928C6.30246 17.9014 7.18707 18.3518 7.69133 19.4936C9.30527 19.4936 10.92 19.5296 12.5316 19.4827C13.9714 19.4404 15.2748 19.7806 16.5037 20.5251C17.5922 21.1844 18.7145 21.7889 19.8351 22.3949C20.0633 22.5185 20.3464 22.5967 20.6052 22.5998C22.1282 22.6186 23.6527 22.646 25.1749 22.6006C27.4892 22.5318 28.82 24.4188 28.5722 26.1495C28.5691 26.1729 28.5824 26.1987 28.5973 26.2605C29.3086 26.0181 30.0168 25.7788 30.7241 25.5356C32.4079 24.9577 34.0916 24.3813 35.773 23.7987C36.4145 23.5766 37.0638 23.4867 37.7289 23.6556C38.8793 23.948 39.5946 24.6832 39.9075 25.8187C39.9349 25.9172 39.9686 26.0142 40 26.1119C39.9984 26.4247 39.9984 26.7368 39.9984 27.048ZM7.827 30.4858C9.40016 30.6227 10.7632 31.2248 12.0509 32.0538C13.0006 32.6653 13.9832 33.2276 14.958 33.8016C17.5083 35.3023 20.1559 35.5127 22.8795 34.3295C26.6211 32.7044 30.3516 31.0544 34.0861 29.4152C35.2515 28.9038 36.4216 28.4009 37.5814 27.8762C38.2206 27.5868 38.5453 26.9221 38.4057 26.2738C38.2567 25.5794 37.783 25.1578 37.0646 25.1414C36.7988 25.1352 36.5204 25.1993 36.2663 25.2853C33.2909 26.2996 30.3077 27.2936 27.352 28.3642C26.3615 28.7231 25.3828 28.8655 24.3437 28.8514C22.1698 28.8224 19.9959 28.8428 17.8212 28.842C17.691 28.842 17.5593 28.8498 17.4307 28.8342C17.0668 28.7912 16.7884 28.5002 16.7507 28.1366C16.7155 27.7949 16.917 27.4586 17.2597 27.3499C17.4283 27.2959 17.6165 27.2865 17.7961 27.2865C20.3347 27.2826 22.8732 27.2858 25.4118 27.2826C26.1419 27.2818 26.723 26.8767 26.9426 26.2339C27.2924 25.2102 26.5513 24.1834 25.4275 24.1725C23.8261 24.1569 22.2247 24.1584 20.6241 24.1733C20.0586 24.1787 19.5497 24.0435 19.0627 23.7666C17.8087 23.0542 16.5445 22.359 15.2921 21.6434C14.5847 21.2399 13.8342 21.0452 13.0202 21.0491C11.4188 21.0585 9.81737 21.0514 8.21598 21.0522C8.0905 21.0522 7.96502 21.0639 7.82622 21.0702C7.827 24.2132 7.827 27.3249 7.827 30.4858ZM1.58924 19.4967C1.58924 23.6728 1.58924 27.805 1.58924 31.9568C2.91616 31.9568 4.21562 31.9662 5.51588 31.9513C5.95112 31.9466 6.24521 31.6119 6.24599 31.1482C6.25148 27.5399 6.25148 23.9316 6.24599 20.3233C6.24521 19.8307 5.93544 19.5069 5.4453 19.5014C4.17092 19.4874 2.89655 19.4967 1.58924 19.4967Z" fill="#666666"/>
<path d="M23.15 3.76622C23.579 3.2493 23.9711 2.67451 24.4628 2.20217C27.3644 -0.586552 32.04 0.482482 33.5771 4.29175C34.4147 6.36804 34.2484 8.40601 33.1466 10.3587C32.2729 11.9072 31.0488 13.1686 29.7391 14.34C27.8115 16.0644 25.8438 17.745 23.888 19.4389C23.4645 19.8057 23.1077 19.8346 22.7328 19.5132C20.4256 17.5315 18.1113 15.5569 15.8324 13.5432C15.1932 12.9785 14.6513 12.3013 14.0914 11.653C13.7149 11.2174 13.751 10.7505 14.1298 10.4549C14.5039 10.1632 14.9579 10.2524 15.314 10.6942C16.7083 12.428 18.4282 13.8223 20.1095 15.2558C21.1471 16.1403 22.1956 17.0115 23.2433 17.892C23.3021 17.8576 23.3515 17.8381 23.3884 17.8044C25.5921 15.8431 27.8193 13.9076 29.9861 11.9072C30.9719 10.9969 31.7851 9.91611 32.2259 8.62028C32.738 7.11644 32.6305 5.64388 31.8244 4.26672C30.3288 1.71105 26.9253 1.47175 25.109 3.81158C24.6549 4.39732 24.3303 5.09333 24.0119 5.76978C23.7303 6.36804 23.568 6.58231 23.1469 6.56745C22.6293 6.54869 22.4701 6.17957 22.3336 5.76118C22.074 4.96195 21.6553 4.25108 21.0922 3.62155C18.9285 1.20195 15.4826 2.06844 14.2913 4.68824C14.1737 4.94709 14.0961 5.22471 13.9784 5.48356C13.8083 5.85581 13.4075 6.02551 13.0366 5.90351C12.6468 5.77448 12.4068 5.37955 12.5213 4.97602C13.7189 0.767141 18.2988 -0.441877 21.1698 1.61251C21.5682 1.89717 21.9313 2.24361 22.2623 2.60569C22.5956 2.96855 22.8645 3.38616 23.15 3.76622Z" fill="#666666"/>
<path d="M13.2179 9.05348C12.7827 9.0613 12.4227 8.70938 12.4251 8.27614C12.4274 7.86401 12.7756 7.51132 13.1881 7.50271C13.6163 7.49411 13.9841 7.85697 13.981 8.28474C13.9786 8.70313 13.6383 9.04566 13.2179 9.05348Z" fill="#666666"/>
<path d="M3.90429 21.0577C4.33326 21.057 4.69479 21.4253 4.68381 21.8531C4.67362 22.2715 4.32855 22.6069 3.90742 22.6077C3.47218 22.6085 3.11771 22.2496 3.1279 21.8171C3.13731 21.4065 3.49257 21.0593 3.90429 21.0577Z" fill="#666666"/>
</svg>
