<svg width="51" height="51" viewBox="0 0 51 51" fill="none" xmlns="http://www.w3.org/2000/svg">
<path d="M0.00521881 35.5837C0.377059 35.2014 0.74629 34.8152 1.12335 34.4368C1.55782 33.9997 1.77962 33.4805 1.77309 32.8594C1.76526 32.1432 1.76787 31.4269 1.77309 30.7106C1.77831 30.1339 2.04577 29.813 2.50634 29.8117C2.9695 29.8103 3.23175 30.1274 3.23566 30.708C3.23958 31.3747 3.22131 32.0427 3.23958 32.7094C3.27089 33.8327 2.886 34.7774 2.07839 35.555C1.98706 35.6437 1.90487 35.7415 1.84746 35.8055C3.07779 37.0358 4.29247 38.2492 5.51237 39.4691C7.8517 37.7612 9.08334 37.8421 11.5271 39.914C13.3602 37.97 15.3511 37.6986 17.4635 39.4038C19.7075 37.1597 21.949 34.9183 24.1501 32.7172C23.636 32.2084 23.075 31.6539 22.4631 31.0485C22.0677 31.4438 21.5785 31.9331 21.0892 32.4224C20.9744 32.5372 20.8635 32.6585 20.7409 32.7642C20.3938 33.0669 19.9763 33.0682 19.6893 32.7772C19.3931 32.4759 19.3853 32.0727 19.7167 31.7322C20.3064 31.1294 20.917 30.5475 21.5093 29.9669C20.737 29.1032 20.0089 28.2891 19.2196 27.4058C18.7734 27.8716 18.2671 28.4182 17.74 28.9427C17.3395 29.3407 16.8359 29.3198 16.5658 28.9127C16.3179 28.5396 16.4145 28.2069 16.7159 27.9055C17.5117 27.1122 18.305 26.3177 19.0982 25.5218C19.2013 25.4187 19.3279 25.3183 19.3801 25.1904C19.8028 24.1571 20.5556 23.4982 21.6241 23.1994C21.5315 22.7167 21.2901 22.5288 20.7983 22.5092C19.9607 22.4766 19.5092 22.1452 18.7199 21.1771C18.6038 21.2841 18.4863 21.3872 18.3754 21.4981C16.8894 22.9815 15.4046 24.4676 13.9199 25.9523C13.8272 26.045 13.7385 26.1402 13.6407 26.225C13.2897 26.5277 12.8787 26.5277 12.5904 26.2329C12.3112 25.9458 12.3229 25.5231 12.623 25.18C12.7091 25.0821 12.8057 24.9947 12.897 24.9021C14.6583 23.1407 16.4236 21.3846 18.1706 19.6102C18.3298 19.4484 18.4394 19.1731 18.4511 18.9435C18.4876 18.2624 18.4446 17.5761 18.472 16.8938C18.485 16.565 18.3454 16.4241 18.0623 16.3354C17.3278 16.1031 16.7328 16.3197 16.2031 16.8507C13.8246 19.2383 11.4396 21.6168 9.05595 23.9992C8.96331 24.0918 8.8785 24.191 8.77804 24.2745C8.54711 24.4663 8.56799 24.6307 8.78065 24.8355C9.19163 25.2295 9.61305 25.6196 9.97446 26.0567C11.4696 27.8637 11.758 29.8664 10.8643 32.0323C10.6412 32.5711 10.2628 32.759 9.84529 32.5802C9.41604 32.3963 9.29862 32.0036 9.51651 31.4725C10.2458 29.6864 9.99142 27.9772 8.53798 26.7091C7.41332 25.7266 6.93058 24.6529 7.11324 23.1864C7.21109 22.4009 7.13803 21.5933 7.1289 20.7962C7.11585 19.6402 6.28084 18.7843 5.18098 18.7856C4.08242 18.7869 3.24219 19.6415 3.23566 20.7988C3.22523 23.0285 3.22914 25.2582 3.23436 27.4893C3.23566 27.9277 3.1078 28.2669 2.63811 28.3608C2.1358 28.4613 1.77309 28.1103 1.76918 27.5167C1.76135 26.4259 1.76657 25.3352 1.76657 24.2445C1.76657 23.0885 1.75613 21.9325 1.76918 20.7779C1.79136 18.8195 3.28785 17.3152 5.19272 17.3204C7.09498 17.3256 8.57451 18.8378 8.59408 20.8027C8.5993 21.2854 8.59538 21.7682 8.59538 22.3487C8.79239 22.1687 8.92286 22.0578 9.0429 21.9378C10.966 20.0159 12.8879 18.0941 14.811 16.1723C16.1196 14.8637 16.5971 14.6901 18.4368 14.8676C18.4368 14.3196 18.4368 13.7742 18.4368 13.1193C18.2176 13.3359 18.0532 13.5016 17.8862 13.6633C16.7237 14.788 14.9989 14.8023 13.8977 13.6986C12.79 12.587 12.7926 10.8765 13.9394 9.71661C16.0231 7.61082 18.1145 5.51156 20.2294 3.43708C20.7474 2.92824 21.0175 2.38157 20.9496 1.66268C20.9366 1.51786 20.9444 1.36912 20.9496 1.223C20.9718 0.596738 21.2262 0.342321 21.8603 0.339711C23.2446 0.333188 24.6276 0.337102 26.0119 0.337102C27.7536 0.337102 29.4954 0.334493 31.2372 0.338407C31.9587 0.339711 32.2392 0.591519 32.2118 1.30389C32.1727 2.28502 32.4427 3.15135 32.9607 3.97983C33.7592 5.25322 34.0775 6.67144 34.0788 8.16532C34.0802 10.6717 34.0802 13.1793 34.0788 15.6856C34.0775 16.9629 33.5909 17.6623 32.311 18.1607C32.4923 18.3459 32.6593 18.5077 32.8146 18.6786C32.9777 18.8574 33.1303 19.0465 33.3195 19.267C33.4108 19.1013 33.4513 19.0348 33.4865 18.9643C34.3959 17.1704 36.4873 16.822 37.9225 18.2415C39.5312 19.832 41.1256 21.4381 42.7238 23.0402C43.6214 23.9392 44.5295 24.8264 45.405 25.7462C46.5844 26.9844 47.3907 28.443 47.773 30.1104C48.0548 31.3355 48.5898 32.3911 49.5148 33.2587C50.2154 33.9149 50.1959 34.1746 49.5083 34.8622C46.6875 37.6816 43.868 40.5024 41.0473 43.3219C40.4171 43.952 40.147 43.9494 39.509 43.314C39.3355 43.1418 39.1568 42.9761 38.9924 42.7948C38.4901 42.2429 37.8768 42.0093 37.1253 42.0132C33.1851 42.0289 29.2462 42.025 25.306 42.0185C23.5629 42.0158 22.2008 40.9799 21.8264 39.3777C21.6437 38.5962 21.7442 37.8317 22.073 37.0932C22.0247 37.0554 21.9764 37.0162 21.9268 36.9784C21.7742 37.1806 21.6424 37.4037 21.4663 37.5838C20.4956 38.5688 19.5171 39.5486 18.5294 40.518C18.3441 40.6994 18.2998 40.8547 18.3611 41.1104C18.699 42.5168 18.3702 43.7537 17.3447 44.7844C15.6225 46.5158 13.8938 48.2393 12.1637 49.9641C12.0281 50.0998 11.8689 50.2133 11.7215 50.3359C11.591 50.3359 11.4605 50.3359 11.3313 50.3359C11.1787 50.2172 11.013 50.1128 10.8773 49.9785C9.12509 48.2328 7.37027 46.4923 5.6324 44.7322C4.66953 43.7576 4.34205 42.5703 4.62909 41.2343C4.69041 40.9499 4.6317 40.7881 4.43991 40.5989C3.11041 39.2825 1.78875 37.9582 0.469693 36.6326C0.298777 36.4617 0.15526 36.2621 0 36.0768C0.00521881 35.9085 0.00521881 35.7454 0.00521881 35.5837ZM48.2023 34.0011C47.2903 33.0838 46.7071 31.9748 46.4253 30.708C46.0443 28.9897 45.1845 27.5506 43.9398 26.3164C41.6396 24.0357 39.3564 21.7395 37.0653 19.4497C36.9388 19.3231 36.8148 19.1914 36.6713 19.0857C36.2851 18.8013 35.8598 18.7673 35.4266 18.9604C34.9856 19.1574 34.6921 19.5332 34.7416 19.9912C34.7821 20.3617 34.966 20.7831 35.2218 21.0532C36.3882 22.2796 37.6015 23.4591 38.798 24.6568C38.901 24.7598 39.0106 24.8603 39.102 24.9738C39.3681 25.2987 39.3551 25.7175 39.0785 25.9863C38.7888 26.2681 38.4092 26.2746 38.0673 25.9928C37.9551 25.9002 37.856 25.7906 37.7529 25.6862C35.6693 23.6039 33.587 21.5203 31.5034 19.4393C31.3833 19.3192 31.2529 19.2096 31.0493 19.0244C31.1615 20.4452 30.6827 21.4668 29.4211 22.0969C30.2326 22.9085 31.0024 23.6756 31.7708 24.4441C32.3227 24.996 32.8837 25.5414 33.4213 26.1076C33.7318 26.4338 33.7109 26.8774 33.4174 27.1553C33.1225 27.4358 32.7507 27.4345 32.4062 27.1474C32.3071 27.0639 32.2183 26.9674 32.127 26.8748C30.654 25.4018 29.181 23.9287 27.7067 22.457C27.5866 22.337 27.4588 22.2261 27.3113 22.0904C26.9239 23.3964 26.0862 24.071 24.732 24.1975C24.8898 24.3671 25.0033 24.4963 25.1247 24.6176C26.8847 26.379 28.6461 28.139 30.4061 29.9004C30.5209 30.0152 30.6488 30.1235 30.7362 30.2579C30.9502 30.5827 30.9332 30.9115 30.6514 31.1894C30.3696 31.466 30.0395 31.4765 29.7185 31.2586C29.5724 31.1594 29.455 31.0185 29.3284 30.8919C27.4053 28.9714 25.4887 27.0431 23.559 25.1304C22.8506 24.4284 21.8186 24.4258 21.1532 25.0873C20.4864 25.7501 20.4838 26.7873 21.1858 27.4932C23.6764 29.9969 26.1802 32.4876 28.6709 34.9913C28.894 35.2157 29.0401 35.2275 29.2671 34.9965C29.7577 34.4995 30.2339 33.971 30.7923 33.5601C32.5824 32.2449 34.5211 32.0792 36.5552 32.956C36.9074 33.1073 37.1514 33.3918 37.0236 33.7558C36.9375 34.0024 36.6726 34.2333 36.4299 34.3611C36.2929 34.4342 36.0294 34.3064 35.8376 34.2333C34.1232 33.5744 32.5824 33.8406 31.232 35.0957C30.8275 35.4728 30.4753 35.9111 30.0447 36.253C29.7877 36.4565 29.4276 36.63 29.1079 36.6405C27.7915 36.6835 26.4711 36.6483 25.1534 36.6613C23.8708 36.6744 22.9823 37.8056 23.2563 39.0529C23.456 39.9635 24.2583 40.5507 25.3321 40.552C29.2867 40.5546 33.2425 40.5611 37.1971 40.5481C38.2852 40.5441 39.1972 40.9082 39.9539 41.6831C40.0544 41.7862 40.164 41.8802 40.2462 41.9558C42.8999 39.3047 45.5328 36.6718 48.2023 34.0011ZM22.4813 1.82446C22.1173 3.60799 22.1173 3.60799 20.7748 4.95184C18.8986 6.828 17.0146 8.69764 15.1541 10.5882C14.9036 10.8426 14.6805 11.1818 14.5866 11.521C14.4326 12.0703 14.764 12.6431 15.2689 12.904C15.7752 13.1662 16.3871 13.0762 16.8424 12.6352C17.6018 11.8981 18.3363 11.1361 19.0956 10.399C19.4166 10.0871 19.8641 10.0963 20.1446 10.3794C20.4147 10.6521 20.4003 11.0422 20.1603 11.4023C20.0442 11.5758 19.9463 11.8015 19.945 12.0038C19.9293 13.9726 19.9359 15.9427 19.9359 17.9128C19.9359 18.5964 19.9228 19.2801 19.9411 19.9638C19.958 20.6109 20.4473 21.0845 21.0592 21.0819C21.6515 21.0793 22.1225 20.6265 22.1747 20.0042C22.1865 19.8581 22.18 19.7119 22.18 19.5645C22.18 17.5618 22.1786 15.5604 22.1813 13.5577C22.1813 12.9301 22.4265 12.6065 22.8975 12.5987C23.3842 12.5909 23.6438 12.9288 23.6464 13.5811C23.6477 14.0534 23.6464 14.5257 23.6464 14.9967C23.6464 17.1612 23.6477 19.3271 23.6464 21.4916C23.6464 22.0147 23.8539 22.4088 24.3471 22.6136C24.7789 22.7923 25.229 22.7467 25.5096 22.3879C25.7209 22.1178 25.8723 21.7212 25.8762 21.3794C25.9062 18.8247 25.8918 16.2688 25.8931 13.7129C25.8931 13.5668 25.884 13.4181 25.8997 13.2732C25.9466 12.8596 26.1828 12.6183 26.6003 12.6039C27.023 12.5896 27.2631 12.8335 27.344 13.2328C27.3727 13.3737 27.357 13.525 27.357 13.6712C27.3583 15.6569 27.3544 17.6427 27.3609 19.6284C27.3622 20.1621 27.6571 20.573 28.1033 20.7244C28.5495 20.8757 29.0884 20.7609 29.3245 20.3656C29.4889 20.0903 29.5881 19.7315 29.5907 19.4093C29.6115 16.9186 29.6024 14.4279 29.6024 11.9385C29.6024 11.7754 29.5476 11.568 29.6259 11.4597C29.7916 11.2314 29.9977 10.973 30.2456 10.8791C30.5601 10.7604 30.8562 10.9548 30.9828 11.2796C31.0506 11.4545 31.0637 11.6593 31.0637 11.8511C31.0702 13.1702 31.0441 14.4892 31.0859 15.8057C31.095 16.0823 31.2737 16.4528 31.4955 16.6054C32.0187 16.9668 32.6189 16.5076 32.6202 15.7704C32.6254 13.1493 32.6293 10.5294 32.615 7.90829C32.6098 6.91933 32.4036 5.95776 31.9143 5.09536C31.3338 4.07377 30.7558 3.06263 30.7636 1.82577C27.9689 1.82446 25.2382 1.82446 22.4813 1.82446ZM11.501 48.5276C13.1879 46.8485 14.8449 45.2424 16.4497 43.5854C17.2978 42.7099 17.2208 41.3087 16.3727 40.4502C15.5221 39.5878 14.1652 39.5239 13.2349 40.3223C12.8905 40.6185 12.5826 40.9564 12.259 41.2761C11.6575 41.8723 11.3705 41.8697 10.756 41.2604C10.4441 40.9512 10.1441 40.6289 9.81528 40.3393C8.89808 39.5317 7.53466 39.5787 6.67617 40.4306C5.80332 41.297 5.75896 42.6812 6.59397 43.6037C6.97494 44.0251 7.39245 44.4139 7.7943 44.817C9.02333 46.0474 10.2511 47.2764 11.501 48.5276ZM25.3634 33.8158C24.8141 34.3664 24.2583 34.9261 23.833 35.3527C24.6772 35.2849 25.6883 35.2027 26.7112 35.1205C26.2506 34.6743 25.7992 34.2372 25.3634 33.8158Z" fill="#666666"/>
<path d="M43.0657 14.4606C43.8225 13.696 44.5596 12.9393 45.3124 12.1982C45.7039 11.8133 46.2231 11.8512 46.4841 12.2622C46.6967 12.5975 46.6406 12.9236 46.3719 13.1963C45.4455 14.1344 44.5166 15.0686 43.5746 15.991C43.221 16.3368 42.8413 16.3381 42.493 15.991C40.6468 14.1553 38.7759 12.3417 36.9858 10.4538C35.6263 9.02128 35.7503 6.73022 37.1489 5.32897C38.545 3.93033 40.7982 3.84813 42.2855 5.14762C42.54 5.37072 42.7774 5.61209 43.1179 5.93566C43.3189 5.68776 43.4793 5.43335 43.692 5.23503C45.1402 3.89119 47.3517 3.88466 48.7921 5.20633C50.2547 6.54887 50.4373 8.77469 49.1979 10.3286C48.9656 10.6195 48.7008 10.8909 48.4176 11.1336C48.1058 11.3998 47.7548 11.3867 47.4456 11.1062C47.1469 10.8361 47.1364 10.4291 47.4143 10.099C47.5709 9.91239 47.7601 9.75322 47.9232 9.57186C48.7973 8.59856 48.7582 7.196 47.8397 6.32054C46.9368 5.46074 45.5538 5.47379 44.6236 6.35838C44.317 6.64933 44.0247 6.95593 43.7233 7.25341C43.1962 7.77268 42.8766 7.77529 42.3599 7.26776C42.035 6.94811 41.7232 6.6141 41.3879 6.3075C40.4655 5.46335 39.0916 5.48292 38.207 6.34142C37.3264 7.196 37.2376 8.61682 38.104 9.51185C39.7101 11.1701 41.3696 12.7762 43.0657 14.4606Z" fill="#666666"/>
<path d="M6.91389 7.37851C7.03914 7.2663 7.15917 7.15932 7.2779 7.05233C8.44169 6.00204 10.1835 6.01379 11.312 7.07842C12.4419 8.14567 12.6233 9.93964 11.5743 11.0917C10.25 12.5464 8.81875 13.9046 7.42011 15.2902C7.10698 15.6007 6.69209 15.5799 6.37243 15.2628C5.00902 13.9098 3.62864 12.5725 2.30959 11.1778C1.26844 10.0766 1.32845 8.33877 2.35917 7.22455C3.39771 6.1012 5.13036 5.95116 6.34504 6.88663C6.53552 7.03406 6.71166 7.20237 6.91389 7.37851ZM6.89171 13.6633C8.07377 12.5073 9.27931 11.3709 10.4288 10.181C10.978 9.61216 10.8789 8.68973 10.3205 8.1548C9.7464 7.60552 8.85268 7.599 8.24599 8.15219C8.00592 8.37138 7.78673 8.61145 7.55319 8.83847C7.08611 9.2912 6.73123 9.28729 6.25501 8.82803C5.98624 8.56839 5.73704 8.28527 5.4461 8.05304C4.85115 7.57812 3.9757 7.6551 3.45251 8.20177C2.93846 8.73931 2.84843 9.62259 3.36248 10.1562C4.51845 11.3579 5.72661 12.5125 6.89171 13.6633Z" fill="#666666"/>
</svg>
