<svg width="53" height="41" viewBox="0 0 53 41" fill="none" xmlns="http://www.w3.org/2000/svg">
<path d="M4.83427 37.6713C4.83427 38.4348 4.84071 39.1983 4.83298 39.9618C4.82655 40.522 4.53431 40.8648 4.08115 40.875C3.62798 40.8852 3.30098 40.5386 3.29712 39.9887C3.28682 38.4284 3.28682 36.8668 3.29841 35.3065C3.30227 34.7796 3.60738 34.4612 4.05282 34.4535C4.51629 34.4458 4.82397 34.7771 4.8317 35.3296C4.842 36.111 4.83427 36.8911 4.83427 37.6713Z" fill="#7159A6"/>
<path d="M0 33.2339C0.0347597 33.1597 0.081106 33.0881 0.102992 33.0101C0.437715 31.8155 1.20243 31.0341 2.39456 30.6786C3.34466 30.3946 4.29733 30.121 5.25515 29.8677C5.63622 29.768 5.75853 29.5723 5.77655 29.1835C5.8023 28.6361 5.64652 28.2691 5.21396 27.8803C3.88794 26.6883 3.27256 25.1446 3.30089 23.372C3.31118 22.6776 3.18245 22.0586 2.88377 21.4178C1.5629 18.5876 3.68968 15.0245 6.83994 14.8672C9.21519 14.7495 11.5982 14.8058 13.9786 14.7853C14.1807 14.784 14.3815 14.7853 14.6184 14.7853C14.7175 13.6841 14.787 12.6341 14.9106 11.5905C15.3329 8.00825 16.7284 4.93754 19.7912 2.81579C22.3016 1.07517 25.1287 0.605801 28.1167 1.0125C33.1788 1.70057 36.6187 5.36854 37.4877 10.2528C37.901 12.5728 38.0001 14.949 38.2395 17.2997C38.2859 17.7486 38.3245 18.1988 38.3722 18.7091C38.7365 18.1642 38.9888 17.6015 39.4021 17.2076C40.114 16.5298 40.4809 15.8583 40.4564 14.7968C40.4204 13.2723 41.8764 11.941 43.5745 11.6033C45.3511 11.2503 47.1702 12.0177 48.0444 13.5038C48.446 14.1868 48.6044 14.9273 48.4422 15.71C48.3829 15.9977 48.4512 16.1755 48.6752 16.3673C51.0015 18.3638 51.6182 21.4255 50.2741 24.1931C50.1711 24.4041 50.0978 24.6343 50.0476 24.8633C49.7669 26.1345 49.1631 27.2242 48.1461 28.0465C47.8036 28.3228 47.7122 28.6054 47.671 29.0249C47.5976 29.7769 47.8474 30.1977 48.5658 30.4714C49.3124 30.7553 50.0141 31.162 50.7299 31.5252C51.9928 32.1647 52.6301 33.1917 52.6301 34.6023C52.6301 36.3724 52.6275 38.1411 52.6326 39.9112C52.6339 40.3639 52.5052 40.722 52.0211 40.8474C51.4959 40.9829 51.0942 40.5941 51.0916 39.9304C51.0852 38.2294 51.0646 36.5271 51.0994 34.8261C51.12 33.835 50.717 33.1776 49.8132 32.7747C49.1734 32.4908 48.5477 32.1711 47.9349 31.8347C47.6543 31.68 47.4998 31.7567 47.2719 31.9409C46.7183 32.3872 46.1828 32.9218 45.5404 33.1763C44.2684 33.6802 43.0943 33.3336 42.0927 32.4051C41.2456 31.6186 41.2405 31.6237 40.2324 32.2235C40.2183 32.2312 40.2106 32.2491 40.1539 32.3143C41.2199 33.5229 41.1143 35.0205 41.1053 36.499C41.0989 37.5541 41.104 38.6092 41.104 39.6643C41.104 39.7999 41.1117 39.938 41.0976 40.0723C41.0486 40.5532 40.7358 40.8742 40.3251 40.8755C39.8887 40.8768 39.5707 40.5417 39.5669 40.0212C39.5566 38.4724 39.563 36.9249 39.5617 35.3761C39.5617 35.1894 39.5681 35.0014 39.554 34.8146C39.478 33.7992 39.003 33.0318 38.0619 32.6034C36.6161 31.9473 35.1575 31.318 33.6564 30.6556C32.0665 33.5063 29.6359 35.1139 26.3543 35.1254C23.0676 35.1369 20.6228 33.5562 18.9827 30.6594C18.7535 30.7591 18.5256 30.8589 18.2965 30.9587C17.1069 31.4792 15.9187 32.0023 14.7291 32.5202C13.6207 33.0024 13.0761 33.8503 13.0722 35.0423C13.0671 36.5911 13.0709 38.1399 13.0697 39.6874C13.0697 39.8575 13.0748 40.0288 13.0529 40.1964C12.9988 40.612 12.7311 40.8435 12.3307 40.8601C11.9535 40.8755 11.6754 40.6709 11.5827 40.2897C11.5389 40.1107 11.5299 39.9201 11.5299 39.7347C11.5261 38.3227 11.5557 36.9095 11.5196 35.4976C11.481 33.9654 11.8891 32.6417 13.2151 31.6071C12.7233 31.4421 12.3037 31.2848 11.8737 31.1684C11.781 31.1428 11.6252 31.24 11.5389 31.3232C11.0111 31.8322 10.4794 32.3412 9.98248 32.8809C9.85245 33.0216 9.7855 33.2684 9.78422 33.4666C9.77005 35.5423 9.7752 37.618 9.7752 39.695C9.7752 39.8485 9.78164 40.002 9.7649 40.1542C9.71985 40.5928 9.45078 40.8461 9.02594 40.8589C8.6217 40.8717 8.35006 40.635 8.26637 40.2335C8.23162 40.0698 8.23419 39.8958 8.23419 39.7257C8.23162 37.65 8.2432 35.573 8.21874 33.4986C8.21617 33.2467 8.0797 32.9487 7.90977 32.7556C7.48235 32.2696 7.01116 31.8194 6.53096 31.3845C6.40866 31.2746 6.16406 31.1978 6.01086 31.2375C5.00282 31.5022 4.0038 31.7976 3.0035 32.0918C1.971 32.3949 1.54488 32.9576 1.54359 34.0281C1.53973 36.0015 1.54101 37.9761 1.5423 39.9495C1.5423 40.3601 1.41742 40.6913 0.986146 40.8218C0.579329 40.9445 0.292239 40.7719 0.0798186 40.4343C0.0630824 40.4087 0.0270353 40.3959 0 40.3767C0 37.9992 0 35.6165 0 33.2339ZM31.2142 26.1576C31.2142 26.4632 31.2117 26.7702 31.2142 27.0758C31.2219 27.8905 32.4424 28.8906 33.2174 28.6105C34.658 28.0887 36.06 27.4608 37.4787 26.8801C37.7902 26.7523 37.8044 26.5502 37.7658 26.233C37.3564 22.8579 36.9676 19.4803 36.5852 16.1013C36.3715 14.2098 36.3278 12.2863 35.948 10.4293C35.1176 6.3725 32.7887 3.54478 28.5776 2.65721C23.4036 1.56628 18.3415 3.97962 16.8791 9.64528C16.4362 11.359 16.3564 13.1675 16.1504 14.9375C15.7114 18.7027 15.3071 22.473 14.8578 26.2368C14.8141 26.6001 14.8939 26.7753 15.199 26.907C16.31 27.3866 17.4326 27.8419 18.5269 28.3573C19.3174 28.7295 20.0216 28.6169 20.7567 28.2154C21.1983 27.9749 21.43 27.6769 21.4197 27.1717C21.4055 26.4747 21.4416 25.7752 21.4017 25.0794C21.3888 24.8658 21.2472 24.5934 21.076 24.4655C18.5849 22.6136 17.3786 20.13 17.2923 17.0631C17.2588 15.889 17.6682 14.9912 18.7007 14.3722C19.5736 13.8491 20.2134 13.1137 20.5945 12.1597C20.8159 11.6046 21.2305 11.4064 21.6733 11.5905C22.111 11.7734 22.2256 12.1814 22.0042 12.7646C21.5665 13.9195 20.8249 14.8595 19.7718 15.4798C18.9878 15.9427 18.7162 16.531 18.8514 17.3777C18.8758 17.5286 18.8771 17.6821 18.89 17.8356C19.1217 20.8142 21.2485 23.4206 24.1567 24.289C27.0933 25.1664 30.3182 24.142 32.1811 21.7798C33.6513 19.9138 33.9693 17.7703 33.7234 15.5117C33.6783 15.0974 33.3384 14.6331 33.0024 14.3454C31.558 13.1112 29.8908 12.2172 28.0691 11.7018C26.3981 11.2286 24.6717 10.9485 22.971 10.5802C22.4535 10.4689 22.205 10.1377 22.2861 9.67981C22.3595 9.26416 22.72 9.02372 23.2118 9.07872C23.6031 9.1222 23.9919 9.17975 24.382 9.23858C27.6404 9.72458 30.6941 10.7426 33.3912 12.6789C34.2061 13.2647 34.9992 13.8939 35.1949 14.9375C35.3184 15.5987 35.3313 16.288 35.33 16.9646C35.3236 19.7501 34.3465 22.1507 32.1733 23.9297C31.3829 24.5768 31.0044 25.1894 31.2142 26.1576ZM14.0803 16.3175C13.0697 16.3175 12.2161 16.3111 11.3626 16.3187C9.87305 16.3328 8.37967 16.2868 6.89658 16.3929C4.8625 16.5387 3.42963 18.8421 4.26128 20.6812C4.68355 21.6161 4.8316 22.5254 4.85477 23.5255C4.89726 25.3774 5.72892 26.8252 7.4875 27.5541C10.137 28.654 13.0388 26.8021 13.143 23.9463C13.1868 22.7479 13.4417 21.6429 13.7674 20.4893C14.1305 19.1989 13.994 17.769 14.0803 16.3175ZM43.4097 21.4293C43.1162 21.836 42.8935 22.1775 42.6347 22.4909C42.2987 22.8963 41.8584 22.9641 41.5095 22.6993C41.1401 22.4192 41.1349 21.9882 41.4477 21.5253C41.664 21.2055 41.8842 20.8705 42.0026 20.5098C42.2305 19.8192 42.5176 19.5928 43.2012 19.7846C45.2739 20.3653 47.2642 21.1198 48.8953 22.5881C48.9752 22.661 49.0833 22.7032 49.1824 22.762C49.5854 21.5751 49.4953 20.4382 49.0228 19.3396C47.9336 16.806 44.849 15.6153 42.4094 16.7651C39.76 18.0133 38.7094 20.9983 40.0046 23.5588C40.1706 23.8887 40.2981 24.2494 40.3753 24.61C40.7783 26.5003 42.448 27.8636 44.4229 27.8892C46.2742 27.9135 47.9826 26.6256 48.4267 24.8339C48.4769 24.6318 48.4113 24.3223 48.2761 24.1675C46.9835 22.6712 45.1954 22.0381 43.4097 21.4293ZM32.2274 30.0442C31.3713 29.6235 30.286 29.4201 29.9822 28.4264C29.7054 27.526 29.6796 26.5502 29.5548 25.6805C28.5223 25.8301 27.4319 26.1115 26.3427 26.1115C25.2356 26.1115 24.1284 25.834 22.9324 25.6652C23.186 27.6526 22.9002 29.4585 20.3743 29.9726C21.7094 32.3182 23.6392 33.56 26.214 33.5958C28.8583 33.6355 30.8538 32.4038 32.2274 30.0442ZM35.2579 29.6797C35.8514 29.9432 36.4771 30.144 37.0178 30.4778C38.1945 31.2042 39.2682 31.2004 40.4487 30.4241C40.9791 30.0749 41.3344 29.8102 41.2083 29.1541C41.1555 28.8804 41.2134 28.5249 41.0589 28.3445C40.526 27.7191 39.9209 27.1551 39.3815 26.6065C39.2798 27.4314 39.0879 27.7485 38.255 28.1859C37.2817 28.6949 36.2879 29.1682 35.2579 29.6797ZM13.3683 27.4083C13.2332 27.5516 13.1005 27.7076 12.9512 27.8457C12.789 27.9954 12.6049 28.1233 12.4414 28.2716C12.22 28.4724 12.1196 29.5569 12.3474 29.6324C13.358 29.9726 14.3776 30.41 15.4192 30.4855C16.0448 30.5302 16.7143 29.9726 17.4507 29.6465C15.974 29.0108 14.5373 28.5146 13.3683 27.4083ZM46.1171 29.314C45.0035 29.314 43.9054 29.314 42.7905 29.314C42.6811 30.1094 42.3901 31.0341 43.5063 31.593C44.1436 31.9127 44.719 31.9204 45.3589 31.6045C46.4712 31.0546 46.1957 30.1184 46.1171 29.314ZM46.9501 15.279C46.9642 14.3978 46.56 13.8018 45.8545 13.4245C44.8194 12.8733 43.7754 12.9078 42.7995 13.5742C42.2266 13.9642 41.9061 14.5129 41.9421 15.2879C43.6376 14.6293 45.2765 14.6549 46.9501 15.279ZM7.28924 29.305C7.30855 29.4802 7.24032 29.837 7.38966 30.0161C7.87372 30.5967 8.43889 31.1108 9.03366 31.7132C9.50485 31.2196 9.89622 30.7451 10.3571 30.3499C10.7588 30.0046 10.8038 29.6478 10.6815 29.3063C9.52802 29.305 8.4376 29.305 7.28924 29.305Z" fill="#7159A6"/>
<path d="M47.7959 38.1533C47.7959 37.542 47.7856 36.9307 47.7985 36.3193C47.8088 35.7911 48.101 35.4752 48.5503 35.4688C49.0022 35.4625 49.324 35.7732 49.3305 36.2938C49.3459 37.5497 49.3459 38.8069 49.3292 40.0628C49.3228 40.5462 48.9932 40.8672 48.5761 40.8749C48.1384 40.8826 47.8127 40.5475 47.7998 40.0372C47.7843 39.4092 47.7959 38.7813 47.7959 38.1533Z" fill="#7159A6"/>
<path d="M18.8346 38.4808C18.8346 39.0077 18.8475 39.5359 18.8294 40.0628C18.8127 40.5488 18.5037 40.8852 18.084 40.8686C17.6232 40.8507 17.3296 40.577 17.318 40.1319C17.291 39.0269 17.2884 37.9206 17.3206 36.8169C17.3335 36.3782 17.6129 36.0956 18.0905 36.093C18.5256 36.0917 18.814 36.3974 18.8307 36.8988C18.8488 37.4257 18.8346 37.9539 18.8346 38.4808Z" fill="#7159A6"/>
<path d="M33.7929 38.4475C33.7916 37.9538 33.7826 37.4601 33.7942 36.9678C33.807 36.4204 34.0735 36.1096 34.5203 36.0917C34.9708 36.0725 35.3081 36.3731 35.321 36.9C35.3468 37.9538 35.3455 39.0102 35.3197 40.0641C35.3068 40.5705 34.9361 40.9005 34.5112 40.8723C34.0903 40.8442 33.8109 40.5296 33.7967 40.0295C33.7826 39.5026 33.7942 38.9757 33.7929 38.4475Z" fill="#7159A6"/>
<path d="M7.36548 18.89C8.76488 19.0026 10.1578 19.1215 11.4774 19.6472C11.5881 19.6907 11.7053 19.7265 11.807 19.7853C12.1765 20.0002 12.3387 20.3199 12.1881 20.7292C12.0362 21.1422 11.6886 21.329 11.2843 21.1755C9.75875 20.5987 8.16366 20.4951 6.55957 20.4005C6.06263 20.3711 5.76267 20.0398 5.77554 19.6305C5.78842 19.197 6.127 18.9067 6.64969 18.89C6.88657 18.8837 7.12602 18.89 7.36548 18.89Z" fill="#7159A6"/>
</svg>
