<svg width="40" height="41" viewBox="0 0 40 41" fill="none" xmlns="http://www.w3.org/2000/svg">
<path d="M3.95046 10.2966C3.99459 10.1986 4.03765 10.1028 4.08071 10.007C4.51881 9.02747 5.53819 8.47203 6.53711 8.66687C7.63183 8.88 8.38426 9.76697 8.40256 10.8789C8.41224 11.4688 8.40471 12.0587 8.40471 12.626C8.84389 12.5894 9.26908 12.4871 9.67812 12.5345C10.8008 12.6647 11.6135 13.6077 11.6254 14.7465C11.6383 15.9812 11.6286 17.2158 11.6286 18.4118C12.1055 18.3902 12.5748 18.2923 13.0161 18.3655C14.1173 18.5485 14.845 19.4602 14.8503 20.5872C14.859 22.5345 14.846 24.4828 14.8643 26.4301C14.8665 26.6421 14.9677 26.8994 15.1098 27.0576C15.9451 27.9866 16.7933 28.9026 17.6609 29.8003C18.4026 30.5678 18.7406 31.458 18.7298 32.528C18.705 35.0124 18.7223 37.4979 18.7212 39.9823C18.7212 40.6712 18.521 40.8746 17.8407 40.8746C15.4101 40.8757 12.9795 40.8757 10.549 40.8746C9.91278 40.8746 9.69857 40.6626 9.69642 40.035C9.69427 39.2158 9.68673 38.3967 9.69857 37.5775C9.70826 36.9349 9.48114 36.4085 9.02688 35.9564C7.44561 34.3848 5.86973 32.8079 4.29922 31.2255C4.12269 31.0479 3.96337 30.8402 3.84174 30.6206C2.63399 28.4214 1.43054 26.2201 0.244322 24.0102C0.111922 23.7637 0.0344193 23.4548 0.0333429 23.1739C0.0193494 19.7218 0.0882406 16.2686 0.00105012 12.8186C-0.0538476 10.6486 2.05379 9.21261 3.95046 10.2966ZM17.4316 39.5635C17.4316 39.3902 17.4316 39.2449 17.4316 39.0996C17.4316 36.8972 17.4187 34.6938 17.4392 32.4914C17.4456 31.7734 17.211 31.2008 16.7201 30.6819C14.9494 28.8079 13.198 26.9144 11.4392 25.0296C10.6426 24.1749 9.8482 23.3181 9.04518 22.4688C8.66843 22.0705 8.12591 22.0781 7.86973 22.471C7.66628 22.7831 7.72441 23.8972 7.9623 24.1997C9.25616 25.8466 10.55 27.4936 11.8439 29.1416C11.9386 29.2632 12.029 29.3881 12.1291 29.5215C11.775 29.7993 11.4607 30.0458 11.1345 30.3009C11.0592 30.2148 11.0054 30.1577 10.9569 30.0964C8.67489 27.1932 6.38964 24.2933 4.12053 21.3805C3.97844 21.1986 3.90309 20.9155 3.90202 20.6798C3.88695 18.007 3.89879 15.3342 3.88372 12.6615C3.88264 12.3795 3.81052 12.0684 3.67705 11.8208C3.41009 11.3278 2.81052 11.1136 2.28953 11.2546C1.68781 11.4182 1.31644 11.9069 1.31537 12.5711C1.31214 16.063 1.31214 19.556 1.32075 23.0479C1.32075 23.2245 1.38533 23.4161 1.47145 23.5743C2.61461 25.6862 3.76424 27.7939 4.92032 29.8994C5.0215 30.0845 5.15713 30.2578 5.30568 30.4074C6.79222 31.9026 8.27015 33.4074 9.78253 34.8768C10.6146 35.6852 11.0441 36.6206 10.9903 37.7853C10.9634 38.3719 10.986 38.9597 10.986 39.5668C13.1388 39.5635 15.2562 39.5635 17.4316 39.5635ZM6.47468 22.3063C6.6652 22.0199 6.85143 21.7605 7.01397 21.486C7.0764 21.3795 7.11192 21.2406 7.11192 21.1157C7.1173 17.7444 7.1173 14.373 7.11407 11.0027C7.113 10.3655 6.72333 9.93382 6.16359 9.92521C5.58985 9.91552 5.18404 10.3569 5.18297 11.0135C5.17974 14.1426 5.18081 17.2718 5.18404 20.4021C5.18404 20.5172 5.19265 20.6572 5.25616 20.7422C5.65875 21.2761 6.0764 21.7993 6.47468 22.3063ZM10.339 21.8531C10.339 21.2944 10.339 20.7358 10.339 20.1782C10.339 18.3935 10.3423 16.6087 10.3369 14.824C10.3358 14.3127 10.0646 13.9543 9.61892 13.8283C9.21311 13.7142 8.75239 13.8865 8.55433 14.274C8.46068 14.4559 8.41332 14.6819 8.41224 14.8875C8.40148 16.7928 8.40579 18.6981 8.40686 20.6034C8.40686 20.6927 8.42624 20.782 8.437 20.8822C9.24109 20.8714 9.78684 21.3063 10.339 21.8531ZM13.5425 25.3967C13.5533 25.246 13.5619 25.1836 13.5619 25.1211C13.5629 23.6324 13.5662 22.1448 13.5608 20.6561C13.5586 20.0285 13.1539 19.5969 12.5931 19.598C12.0333 19.5991 11.6351 20.0318 11.6297 20.6604C11.6232 21.4785 11.6232 22.2966 11.634 23.1136C11.6351 23.2341 11.6781 23.3838 11.7567 23.4699C12.3229 24.0964 12.9031 24.7099 13.5425 25.3967Z" fill="#7159A6"/>
<path d="M28.3918 18.4966C28.3918 17.3103 28.3907 16.1564 28.3918 15.0025C28.3929 13.1596 29.6965 12.1704 31.4715 12.6623C31.507 12.672 31.549 12.6634 31.6157 12.6634C31.6157 12.1273 31.6146 11.5913 31.6157 11.0552C31.619 9.80118 32.3176 8.90237 33.4672 8.66986C34.5231 8.45673 35.5081 9.03154 35.9882 10.1424C36.0086 10.1908 36.0409 10.2339 36.0775 10.2963C37.0054 9.78504 37.9311 9.77212 38.8213 10.3459C39.5716 10.8292 39.9849 11.545 39.9892 12.4374C40.0043 16.0767 39.9989 19.7172 39.9903 23.3566C39.9903 23.5471 39.9204 23.7549 39.8289 23.925C38.6028 26.1898 37.3692 28.4513 36.1303 30.7086C36.0291 30.8927 35.887 31.0628 35.7374 31.2124C34.1744 32.7829 32.6125 34.3555 31.0355 35.9121C30.5458 36.3954 30.3057 36.9487 30.3229 37.6376C30.3423 38.4298 30.3294 39.2221 30.3272 40.0143C30.3262 40.6516 30.1141 40.8701 29.4909 40.8701C27.0334 40.8712 24.5759 40.8722 22.1184 40.8701C21.5339 40.8701 21.3046 40.6462 21.3036 40.0746C21.3014 37.4557 21.3003 34.8367 21.3036 32.2167C21.3046 31.3437 21.6265 30.5967 22.2196 29.9605C23.1001 29.0186 23.9709 28.0681 24.8622 27.137C25.0818 26.9078 25.1798 26.6839 25.1776 26.3609C25.1615 24.5482 25.2433 22.7301 25.1485 20.9228C25.0603 19.249 26.4758 17.813 28.3918 18.4966ZM29.0366 39.5633C29.0366 38.9702 29.0603 38.3954 29.0312 37.8227C28.972 36.6451 29.3929 35.6957 30.239 34.8755C31.7524 33.4083 33.2282 31.9013 34.7158 30.4061C34.8558 30.2651 34.9882 30.1069 35.0829 29.9336C36.2508 27.8055 37.4134 25.6731 38.5705 23.5385C38.6437 23.4029 38.7008 23.2382 38.7008 23.0875C38.7083 19.5687 38.7126 16.0498 38.6943 12.5299C38.6932 12.2554 38.5727 11.9476 38.4166 11.7151C38.1077 11.2554 37.5318 11.1058 37.0205 11.2791C36.4575 11.4707 36.1303 11.9336 36.1303 12.5751C36.127 15.2619 36.1378 17.9476 36.1163 20.6343C36.1141 20.9164 35.9979 21.2457 35.8256 21.4696C34.3918 23.3319 32.9333 25.1736 31.4822 27.0208C30.6297 28.1069 29.7761 29.1919 28.8988 30.3082C28.5554 30.0358 28.2336 29.7807 27.8977 29.5149C28.0129 29.362 28.1055 29.2328 28.2034 29.108C29.3724 27.6193 30.5081 26.1015 31.7287 24.6559C32.2142 24.08 32.3197 23.4933 32.2583 22.8109C32.2088 22.2554 31.6103 21.9799 31.1529 22.306C31.056 22.3749 30.9763 22.4696 30.8934 22.5579C28.3369 25.2963 25.7826 28.0391 23.2217 30.7732C22.7955 31.2285 22.5834 31.7431 22.5867 32.3706C22.5963 34.6408 22.5899 36.911 22.591 39.1801C22.591 39.3082 22.6028 39.4374 22.6082 39.5644C24.7653 39.5633 26.8816 39.5633 29.0366 39.5633ZM33.5468 22.306C33.944 21.8001 34.3628 21.278 34.7643 20.7431C34.8278 20.658 34.8364 20.5181 34.8364 20.4029C34.8396 17.2737 34.8407 14.1446 34.8375 11.0154C34.8364 10.3588 34.4327 9.91744 33.859 9.92497C33.2982 9.93251 32.9074 10.3642 32.9064 11.0003C32.9031 14.3717 32.9042 17.742 32.9085 21.1133C32.9085 21.2382 32.943 21.3781 33.0054 21.4847C33.1679 21.7592 33.3552 22.0186 33.5468 22.306ZM31.6103 20.8841C31.6103 18.785 31.6189 16.7334 31.6039 14.6817C31.6007 14.2318 31.2293 13.8744 30.7955 13.8044C30.1873 13.7054 29.6846 14.1779 29.6835 14.8712C29.6792 17.1263 29.6814 19.3814 29.6825 21.6354C29.6825 21.7108 29.69 21.785 29.7008 21.9648C30.225 21.3168 30.774 20.8647 31.6103 20.8841ZM26.4586 25.4201C27.1302 24.6978 27.733 24.0595 28.3208 23.4072C28.3875 23.3329 28.3886 23.1833 28.3897 23.0692C28.3951 22.278 28.3961 21.4869 28.3918 20.6957C28.3886 20.0358 27.9957 19.5967 27.423 19.5977C26.8504 19.5999 26.4629 20.0391 26.4607 20.7011C26.4564 21.7065 26.4596 22.7129 26.4596 23.7194C26.4586 24.249 26.4586 24.7797 26.4586 25.4201Z" fill="#7159A6"/>
<path d="M19.9353 2.56883C20.6392 2.13826 21.2496 1.65494 21.9406 1.36108C23.9051 0.525769 25.7975 0.771194 27.4799 2.07367C29.1721 3.38368 29.8631 5.1684 29.6252 7.29434C29.4692 8.68401 28.8448 9.84978 27.8147 10.7906C25.3949 12.9994 22.9708 15.2028 20.5456 17.4063C20.1645 17.7518 19.875 17.7658 19.5165 17.4407C17.0321 15.1835 14.5198 12.9553 12.0817 10.6485C10.4541 9.10812 9.96647 7.1544 10.5736 5.00155C11.1785 2.85516 12.6317 1.5107 14.805 1.02738C16.566 0.635564 18.1527 1.09843 19.5434 2.24159C19.6866 2.36 19.8298 2.48056 19.9353 2.56883ZM20.016 16.1523C22.4035 13.9757 24.7867 11.8648 27.0967 9.67862C28.8029 8.06398 28.8255 5.31694 27.2528 3.59358C25.6769 1.867 23.1656 1.71307 21.3055 3.2319C21.0666 3.42674 20.8341 3.63018 20.5973 3.82932C20.1096 4.23836 19.9062 4.23513 19.4078 3.8164C19.1096 3.5656 18.8201 3.30403 18.509 3.07152C17.4358 2.27066 16.2345 1.98325 14.9342 2.31694C13.2894 2.7389 12.2151 3.79703 11.7867 5.44073C11.3465 7.12965 11.7878 8.61189 13.0504 9.81102C14.1893 10.8928 15.3691 11.9316 16.5316 12.9886C17.6834 14.0338 18.8351 15.0801 20.016 16.1523Z" fill="#7159A6"/>
</svg>
