<svg width="36" height="41" viewBox="0 0 36 41" fill="none" xmlns="http://www.w3.org/2000/svg">
<path d="M15.8525 22.5567C15.6008 23.4858 15.2156 24.2658 14.3986 24.7691C14.2985 24.8311 14.2853 25.0839 14.2853 25.2485C14.2794 28.9231 14.2806 32.5977 14.2806 36.2735C14.2806 37.0916 14.0719 37.2992 13.2525 37.2992C12.8983 37.2992 12.5441 37.2992 12.1374 37.2992C12.1374 38.2497 12.1457 39.1669 12.135 40.084C12.1278 40.703 11.5565 41.0823 11.0819 40.7555C10.8898 40.6231 10.7372 40.3023 10.7264 40.059C10.6847 39.1561 10.7097 38.2509 10.7097 37.323C9.99415 37.323 9.31552 37.323 8.56653 37.323C8.56653 37.9015 8.56653 38.4894 8.56653 39.0774C8.56653 39.4042 8.5713 39.7322 8.56534 40.059C8.5558 40.5647 8.29818 40.8545 7.86406 40.8628C7.41442 40.87 7.14369 40.5706 7.14011 40.0387C7.13415 39.1478 7.13892 38.2557 7.13892 37.3314C6.42928 37.3314 5.73993 37.3314 4.99571 37.3314C4.99571 38.1126 4.99571 38.8949 4.99571 39.6785C4.99571 39.8419 5.00286 40.0065 4.99094 40.1699C4.95993 40.5993 4.67607 40.8688 4.27176 40.8628C3.86745 40.8581 3.58121 40.5873 3.57167 40.152C3.55617 39.3792 3.5669 38.6051 3.56571 37.8311C3.56571 37.6701 3.56571 37.5103 3.56571 37.298C2.65809 37.298 1.78626 37.3004 0.91323 37.2968C0.226257 37.2944 -0.0325498 37.0344 0.00322998 36.3403C0.235799 31.8093 0.350294 27.2677 0.746257 22.7511C1.11598 18.547 3.2747 15.3029 6.82525 13.0035C6.98626 12.8997 7.15084 12.8007 7.25461 12.7363C7.15681 12.1913 7.07571 11.688 6.97075 11.1894C6.94571 11.069 6.84672 10.9592 6.76919 10.8543C5.73396 9.45888 5.97369 7.55301 7.31901 6.51062C8.67864 5.45751 10.5487 5.69484 11.6746 7.0342C11.8237 7.21072 12.1028 7.33714 12.3389 7.37292C13.881 7.6031 14.9616 8.49521 15.2037 9.89897C15.2967 10.4404 15.2037 11.0189 15.1643 11.5782C15.1297 12.0613 15.0701 12.5431 14.989 13.0202C14.8852 13.6284 14.7433 14.2283 14.6348 14.8354C14.6133 14.9547 14.6193 15.1348 14.6932 15.2075C15.5436 16.0591 16.4095 16.8951 17.2586 17.7228C17.6367 17.6501 17.8156 17.4449 17.8633 17.0871C17.9003 16.8092 17.9802 16.5349 18.0577 16.2642C18.1376 15.9863 18.1782 15.7454 17.9671 15.4782C17.8633 15.347 17.8597 15.0715 17.9146 14.8926C18.2521 13.8002 18.5777 12.7017 18.9844 11.6343C19.7274 9.68668 21.1324 8.39026 23.0812 7.67228C23.2052 7.62696 23.3305 7.58521 23.4319 7.55062C23.0609 6.29952 22.7139 5.06154 22.9345 3.7687C23.216 2.11806 24.615 0.913469 26.206 0.876496C27.8745 0.837139 29.3296 1.95347 29.6754 3.63631C29.871 4.58925 30.1382 5.5553 29.914 6.5476C29.846 6.84934 29.7446 7.14393 29.6468 7.48622C29.7947 7.53631 29.9545 7.59714 30.1179 7.64604C33.4156 8.64668 35.6912 11.6725 35.7055 15.1169C35.7198 18.6126 35.665 22.1106 35.727 25.6051C35.7592 27.4502 34.0632 28.5319 32.4114 27.7519C32.3458 27.7209 32.2778 27.6959 32.1609 27.647C32.1526 27.8282 32.1383 27.9821 32.1383 28.1348C32.1371 32.0324 32.1371 35.9312 32.1371 39.8288C32.1371 39.9922 32.1514 40.1615 32.1144 40.3178C32.0285 40.6863 31.7662 40.8688 31.3976 40.8581C31.0482 40.8485 30.8049 40.6613 30.7297 40.3118C30.6964 40.1544 30.7095 39.9862 30.7095 39.8228C30.7083 35.6127 30.7083 31.4015 30.7083 27.1914C30.7083 27.0137 30.7083 26.8348 30.7083 26.6213C28.3373 26.6213 25.9818 26.6213 23.5666 26.6213C23.5666 26.7835 23.5666 26.9552 23.5666 27.1281C23.5666 31.3537 23.5666 35.5793 23.5666 39.8037C23.5666 39.9671 23.5809 40.1353 23.5499 40.2927C23.476 40.6648 23.2231 40.8581 22.8534 40.8581C22.4837 40.8581 22.2308 40.6648 22.1569 40.2927C22.1259 40.1341 22.1402 39.9671 22.1402 39.8037C22.139 34.7302 22.1366 29.6566 22.1462 24.583C22.1474 24.2658 22.0531 24.1143 21.7729 23.9354C21.0477 23.4715 20.3643 22.9407 19.6857 22.4112C19.446 22.2239 19.2778 22.2037 19.0297 22.3921C18.6517 22.6795 18.2366 22.9169 17.8466 23.1888C17.5103 23.4226 17.1919 23.419 16.8555 23.1912C16.5359 22.9777 16.2067 22.7809 15.8525 22.5567ZM13.3897 16.1676C11.1093 17.0991 9.34295 16.2976 8.65717 14.0339C8.56892 13.7429 8.43534 13.7286 8.20516 13.8598C4.62717 15.9064 2.51259 18.9572 2.14883 23.0731C1.86974 26.2408 1.78864 29.4252 1.62406 32.6037C1.568 33.6806 1.52387 34.7588 1.47378 35.8393C5.29149 35.8393 9.0591 35.8393 12.8196 35.8393C12.8196 32.2626 12.8196 28.7168 12.8196 25.1901C12.5226 25.14 12.253 25.1185 11.9966 25.0458C11.4098 24.8812 10.9435 24.558 10.7491 23.9461C10.637 23.5907 10.7408 23.2914 11.0771 23.1137C11.4218 22.9324 11.7843 22.9598 11.9799 23.3057C12.1886 23.673 12.4868 23.7267 12.8375 23.7243C13.6807 23.7171 14.2078 23.2723 14.4344 22.3301C14.7123 21.1732 14.605 20.0139 14.3748 18.8189C14.2746 18.8749 14.2341 18.9727 14.1673 19.0467C13.5709 19.7098 12.8267 20.0581 11.9358 20.1058C10.3078 20.1952 8.85158 19.0419 8.58919 17.4449C8.51286 16.981 8.70727 16.6566 9.11993 16.5612C9.55644 16.4598 9.86772 16.6745 9.99295 17.1611C10.0263 17.2899 10.0514 17.4235 10.0991 17.5475C10.4497 18.4706 11.5255 18.9274 12.4606 18.5541C13.3861 18.1832 13.8119 17.1193 13.3897 16.1676ZM23.5654 25.134C25.9806 25.134 28.3241 25.134 30.7071 25.134C30.7071 24.9503 30.7071 24.7905 30.7071 24.6295C30.7071 21.7731 30.7059 18.9167 30.7083 16.0615C30.7083 15.477 30.9468 15.1765 31.406 15.1658C31.8795 15.155 32.1323 15.4675 32.1359 16.0746C32.1383 16.4717 32.1359 16.8689 32.1359 17.272C32.8741 17.272 33.5635 17.272 34.2481 17.272C34.7705 12.2449 32.3875 9.95503 30.0475 9.1965C29.5395 10.9807 28.447 12.3535 26.9979 13.4746C26.6687 13.7298 26.3527 13.824 25.9818 13.5807C24.6293 12.6958 23.5535 11.5794 22.9894 10.0314C22.9142 9.82503 22.8391 9.6187 22.7604 9.40044C20.5444 10.4989 20.1222 12.6492 19.4818 14.709C20.4597 15.0346 21.4115 15.3518 22.3978 15.681C22.5636 15.1837 22.7091 14.7173 22.8761 14.2581C23.0359 13.8181 23.3901 13.6392 23.7837 13.7739C24.1892 13.9123 24.3657 14.2581 24.2274 14.6994C24.0103 15.3936 23.798 16.0913 23.5308 16.7675C23.4497 16.9726 23.2124 17.2207 23.0156 17.2517C22.6912 17.303 22.6006 17.4569 22.5517 17.7252C22.5254 17.8707 22.4789 18.0138 22.4217 18.151C22.2976 18.4492 22.3465 18.6483 22.6352 18.8535C23.2661 19.2995 23.8684 19.7873 24.4695 20.2727C25.7969 21.3461 25.5679 23.2914 24.0103 24.0022C23.6549 24.1644 23.4963 24.3385 23.5642 24.719C23.5845 24.8454 23.5654 24.9802 23.5654 25.134ZM24.281 4.61549C24.3466 5.04365 24.4218 5.63283 24.5291 6.21723C24.7474 7.40393 25.7325 8.16604 26.8047 7.99906C27.9198 7.82494 28.6915 6.76108 28.5472 5.57796C28.484 5.06273 28.4017 4.54751 28.3051 4.03705C28.0987 2.95053 27.1792 2.22062 26.1511 2.31007C25.0992 2.40072 24.2798 3.33934 24.281 4.61549ZM13.782 11.0547C14.0325 10.0266 13.6008 9.212 12.6299 8.90907C12.3222 8.81246 11.9907 8.74806 11.6698 8.74686C11.1999 8.74686 10.9041 8.57393 10.6775 8.15053C10.2947 7.43494 9.47892 7.12842 8.73828 7.36218C7.49791 7.75338 7.14846 9.27164 8.10139 10.1864C8.36736 10.4416 8.5713 10.71 8.46516 11.0785C8.30295 11.645 8.58562 12.0124 8.95176 12.3678C9.12589 12.5359 9.29286 12.5503 9.44195 12.3618C9.85222 11.843 10.3639 11.3648 10.6263 10.778C10.9435 10.0695 11.4492 9.87393 12.0718 10.4023C12.5548 10.8114 13.1356 11.0415 13.782 11.0547ZM32.143 18.7509C32.143 20.9549 32.1311 23.1232 32.1514 25.2903C32.1562 25.8186 32.4722 26.2026 32.9493 26.44C33.5587 26.7429 34.3113 26.6034 34.291 25.6254C34.2469 23.5454 34.2779 21.463 34.2779 19.3818C34.2779 19.1779 34.2779 18.9739 34.2779 18.7509C33.554 18.7509 32.8765 18.7509 32.143 18.7509ZM19.5378 16.2415C19.2981 17.2279 19.0679 18.1784 18.8341 19.1266C18.7041 19.6514 18.8723 20.0449 19.3088 20.3634C20.2808 21.0754 21.2374 21.8077 22.2022 22.5281C22.3203 22.6163 22.4455 22.7022 22.5791 22.7618C23.0252 22.961 23.5666 22.769 23.8111 22.3372C24.0258 21.958 23.9363 21.6705 23.4843 21.3163C22.7353 20.7295 21.9816 20.1475 21.2326 19.5595C20.7436 19.1755 20.6971 19.0192 20.87 18.4062C21.0167 17.885 21.161 17.3638 21.3113 16.8259C20.6971 16.6244 20.1389 16.4407 19.5378 16.2415ZM11.677 11.9694C11.4886 12.2187 11.2989 12.5026 11.0735 12.7542C10.8362 13.0178 10.5845 13.2778 10.3019 13.4877C10.0383 13.6833 10.0395 13.8658 10.1695 14.1293C10.4963 14.7913 11.1761 15.2027 11.9012 15.155C12.6442 15.1061 13.3097 14.5992 13.4779 13.8634C13.5781 13.4257 13.5578 12.9617 13.5864 12.561C12.9126 12.3523 12.321 12.1698 11.677 11.9694ZM26.392 12.1173C27.4988 11.2336 28.2836 10.1804 28.6784 8.76237C28.5197 8.82319 28.4351 8.84108 28.3659 8.88402C27.1494 9.63062 25.9341 9.63301 24.702 8.91384C24.5565 8.82916 24.3538 8.84347 24.1105 8.79934C24.4647 10.2532 25.2447 11.2932 26.392 12.1173ZM15.874 18.4325C15.9252 19.2184 15.973 19.9579 16.0242 20.6985C16.0314 20.7987 16.0302 20.9478 16.091 20.9895C16.481 21.2603 16.8615 21.587 17.2992 21.7254C17.496 21.7874 17.8168 21.4547 18.0804 21.3008C18.0911 21.2948 18.0959 21.277 18.1233 21.234C17.5878 20.7259 17.3529 20.0688 17.3409 19.3103C16.6051 19.4033 16.3749 18.7199 15.874 18.4325Z" fill="#7159A6"/>
<path d="M27.8506 34.7969C27.8506 36.5072 27.8518 38.2163 27.8506 39.9265C27.8506 40.5503 27.6193 40.8556 27.1493 40.864C26.6759 40.8723 26.423 40.561 26.423 39.9528C26.4218 36.5036 26.4218 33.0544 26.423 29.6053C26.423 29.0352 26.683 28.7298 27.1458 28.7358C27.593 28.7418 27.8482 29.0375 27.8494 29.5802C27.853 31.3179 27.8506 33.058 27.8506 34.7969Z" fill="#7159A6"/>
<path d="M5.71003 21.5704C6.67967 21.5704 7.59682 21.5704 8.56884 21.5704C8.56884 21.3247 8.55691 21.091 8.57123 20.8584C8.59746 20.4267 8.88132 20.1607 9.28801 20.1643C9.69352 20.1679 9.97141 20.4374 9.99049 20.8727C10.006 21.2436 9.99526 21.6157 9.99526 21.9879C9.99407 22.6832 9.92251 22.7941 9.28086 23.072C9.28086 23.6123 9.26893 24.1621 9.28921 24.7119C9.29517 24.8598 9.37031 25.0244 9.45976 25.1484C9.87719 25.7268 10.3149 26.291 10.7383 26.8658C11.3978 27.7603 11.2416 28.7013 10.334 29.3406C9.20811 30.1325 7.65884 29.9179 6.82875 28.8027C6.22646 27.9929 5.68499 27.1366 5.13994 26.2862C5.03618 26.1252 5.00636 25.8938 5.00279 25.6946C4.98847 24.818 4.99682 23.9414 4.99682 23.0481C4.40049 22.9289 4.26691 22.5305 4.27526 21.9902C4.29673 20.726 4.28003 19.4618 4.28361 18.1976C4.2848 17.6168 4.5293 17.315 4.98967 17.3102C5.45123 17.3055 5.70884 17.6096 5.71003 18.1821C5.71242 19.2936 5.71003 20.4076 5.71003 21.5704ZM6.42444 23.0374C6.42444 23.8818 6.41967 24.6952 6.42921 25.5098C6.4304 25.6195 6.48288 25.7412 6.5449 25.8354C6.99334 26.5176 7.43939 27.201 7.90572 27.8701C8.25636 28.3722 8.81334 28.5057 9.36315 28.2565C9.67682 28.1145 9.79967 27.9523 9.5337 27.622C9.04113 27.0101 8.56646 26.3804 8.12159 25.7316C7.97251 25.5157 7.87829 25.2247 7.86279 24.9612C7.82581 24.329 7.85086 23.6934 7.85086 23.0374C7.37022 23.0374 6.93012 23.0374 6.42444 23.0374Z" fill="#7159A6"/>
</svg>
