<svg width="40" height="41" viewBox="0 0 40 41" fill="none" xmlns="http://www.w3.org/2000/svg">
<path d="M14.0549 40.8734C13.6636 40.7826 13.265 40.7169 12.8841 40.5948C11.368 40.1127 10.2066 39.1798 9.43022 37.7878C9.3123 37.577 9.19126 37.5071 8.94709 37.5176C6.30604 37.624 4.22534 35.8177 4.01664 33.1913C3.9676 32.5694 4.11368 31.9329 4.17525 31.2358C4.14916 31.2233 4.03647 31.1659 3.92168 31.1169C1.30776 29.9982 0.0263704 27.0911 0.976981 24.4115C1.0542 24.1944 1.04481 24.0431 0.911242 23.8459C-0.765631 21.3687 -0.0602385 17.9815 2.46916 16.3871C2.7269 16.2243 2.79994 16.0949 2.74777 15.7798C2.32829 13.2546 3.6462 10.914 6.01491 9.92585C6.08586 9.89663 6.15578 9.86533 6.24865 9.82463C6.18917 9.55542 6.12134 9.29455 6.07438 9.03159C5.53177 6.01906 8.01108 3.29244 11.0507 3.54601C11.1843 3.55749 11.394 3.48653 11.4577 3.38531C13.2744 0.47609 17.4379 -0.0581719 19.9287 2.61001C19.937 2.6194 19.9495 2.62462 19.9913 2.65279C20.0664 2.58392 20.1509 2.51192 20.2302 2.43366C22.6626 0.0440893 26.583 0.455221 28.457 3.3081C28.601 3.52723 28.7304 3.5794 28.9882 3.55749C32.105 3.29453 34.6178 6.27367 33.8571 9.31437C33.8164 9.47611 33.7725 9.63785 33.7235 9.82463C34.576 10.1429 35.3231 10.6031 35.92 11.2782C37.0898 12.6003 37.5249 14.1342 37.2275 15.8726C37.1972 16.05 37.1638 16.169 37.3632 16.29C38.8125 17.178 39.6724 18.4667 39.9353 20.1499C39.9405 20.1854 39.9719 20.2156 39.9906 20.249C39.9906 20.6654 39.9906 21.0827 39.9906 21.4991C39.807 22.3234 39.5952 23.1405 39.0828 23.8334C38.9305 24.04 38.9357 24.2038 39.016 24.4334C39.9552 27.112 38.6633 30.0118 36.0494 31.1231C35.944 31.168 35.8428 31.2191 35.7228 31.2755C35.7405 31.3402 35.752 31.3892 35.7666 31.4362C36.7767 34.6459 34.2379 37.7701 30.9937 37.5165C30.7423 37.4967 30.6567 37.6157 30.5555 37.7962C29.7729 39.1819 28.6177 40.119 27.1005 40.5979C26.7196 40.7179 26.321 40.7847 25.9308 40.8755C25.5144 40.8755 25.0981 40.8755 24.6807 40.8755C24.6212 40.8536 24.5628 40.8202 24.5012 40.8108C22.5822 40.5124 21.1255 39.5284 20.128 37.8619C20.0915 37.8014 20.0424 37.7482 19.9996 37.6918C19.9631 37.7169 19.9495 37.7221 19.9433 37.7315C19.8807 37.8306 19.8212 37.9308 19.7586 38.0289C18.8977 39.3875 17.6883 40.2724 16.1356 40.6845C15.8612 40.7576 15.5826 40.8108 15.3061 40.8734C14.8876 40.8734 14.4713 40.8734 14.0549 40.8734ZM4.11055 15.6671C4.26812 15.6441 4.40795 15.6097 4.54777 15.6066C5.0403 15.593 5.53595 15.5565 6.02638 15.594C6.45838 15.6264 6.68795 15.9509 6.64308 16.3422C6.6003 16.7095 6.31856 16.9203 5.88864 16.9057C5.66743 16.8984 5.44621 16.8744 5.22603 16.8848C3.61281 16.961 2.41698 17.7248 1.72724 19.1721C1.02707 20.6403 1.20759 22.0678 2.21246 23.3492C2.52864 23.753 2.57768 24.0828 2.36064 24.5513C1.37976 26.6664 2.4629 29.1896 4.64169 29.9544C4.85873 30.0306 4.97873 29.9962 5.14673 29.8365C5.52134 29.4807 5.91682 29.1395 6.33943 28.8421C6.66186 28.6156 7.06569 28.7419 7.25456 29.0581C7.43508 29.3617 7.3516 29.7217 7.04273 29.9523C6.93839 30.0296 6.8236 30.0932 6.71821 30.1683C5.45456 31.0762 4.98708 32.7395 5.59334 34.167C6.19647 35.5871 7.72726 36.4324 9.20691 36.1621C9.99265 36.0191 10.0876 36.0682 10.4038 36.7767C11.201 38.5652 13.1523 39.7214 15.0368 39.5211C17.152 39.2957 18.8017 37.8463 19.2118 35.8365C19.2817 35.4943 19.289 35.1395 19.3412 34.792C19.3944 34.4362 19.6094 34.2358 19.9735 34.2212C20.3273 34.2066 20.5767 34.4236 20.6424 34.7962C20.6633 34.911 20.6685 35.0289 20.6758 35.1457C20.8062 37.2943 22.3934 39.0901 24.4876 39.4564C26.6132 39.8289 28.7085 38.7217 29.5809 36.7663C29.8877 36.0776 30.0097 36.0139 30.7475 36.1558C32.9002 36.5701 34.9277 34.647 34.6292 32.4765C34.4821 31.4017 33.9395 30.5899 33.0296 30.0097C32.631 29.7551 32.5245 29.3878 32.7322 29.0497C32.944 28.7043 33.3614 28.6229 33.7506 28.9057C34.1273 29.1791 34.4904 29.4807 34.8129 29.8146C35.0028 30.0118 35.1478 30.0295 35.3847 29.9419C37.5604 29.1415 38.6007 26.6351 37.6063 24.5127C37.3997 24.0723 37.4487 23.7509 37.7524 23.3794C39.6578 21.0494 38.368 17.512 35.4087 16.962C34.9673 16.8796 34.504 16.9172 34.0501 16.9109C33.6525 16.9057 33.376 16.6897 33.3395 16.336C33.3009 15.9686 33.4991 15.6493 33.8884 15.6128C34.4018 15.5648 34.9245 15.6003 35.4421 15.6066C35.5903 15.6086 35.7385 15.6368 35.8804 15.6525C36.3176 13.5874 35.0748 11.5714 33.0724 11.0267C32.3388 10.8274 31.6115 10.8379 30.8748 11.0236C30.4292 11.1363 30.0807 10.9203 29.9993 10.5332C29.9221 10.1669 30.137 9.82776 30.568 9.74115C31.0501 9.64515 31.5426 9.57837 32.0331 9.55855C32.3012 9.54811 32.4171 9.47507 32.4974 9.22254C33.064 7.45489 32.0487 5.52132 30.2623 5.01732C29.9242 4.92236 29.5663 4.90045 29.1614 4.83575C29.2 5.07471 29.225 5.21349 29.2459 5.35332C29.367 6.1495 29.3357 6.93732 29.103 7.71054C28.9923 8.0768 28.649 8.27089 28.3172 8.18846C27.9708 8.10289 27.7569 7.78463 27.809 7.41941C27.8278 7.29106 27.8675 7.16585 27.8936 7.03854C28.287 5.17697 27.328 3.30184 25.5958 2.54323C23.8449 1.77627 21.7798 2.32827 20.7238 3.9321C20.3252 4.53836 19.6876 4.60097 19.2546 3.9321C18.352 2.53905 16.6365 1.9234 15.0473 2.32096C12.8393 2.87297 11.6017 4.97141 12.1318 7.26289C12.2414 7.73663 12.0661 8.08306 11.6622 8.18637C11.2918 8.28133 10.9318 8.05802 10.8546 7.59785C10.7575 7.02497 10.7106 6.44063 10.6845 5.85941C10.6709 5.54428 10.7471 5.22601 10.7815 4.91819C10.7241 4.89419 10.7012 4.87749 10.6772 4.87645C8.44204 4.77836 6.6723 7.27124 7.53004 9.32481C7.57491 9.43229 7.76795 9.51681 7.90465 9.53976C8.43995 9.63159 8.98674 9.66707 9.51787 9.77872C9.86744 9.85281 10.0448 10.2107 9.97283 10.5342C9.89874 10.8692 9.60761 11.0799 9.24761 11.0486C9.13178 11.0382 9.01909 11.0017 8.90535 10.9756C6.06604 10.3286 3.4636 12.8351 4.11055 15.6671Z" fill="#7159A6"/>
<path d="M20.0488 13.5582C20.6508 12.7526 21.4293 12.0754 22.3715 11.5965C26.0759 9.71193 30.0985 11.6413 31.0815 15.7746C31.6418 18.1286 31.2265 20.3168 29.9462 22.3537C28.863 24.0786 27.4522 25.5217 25.9809 26.9054C24.1893 28.5916 22.3715 30.2497 20.5621 31.9182C20.1625 32.2866 19.8515 32.3169 19.4999 31.985C17.055 29.6831 14.5872 27.4052 12.1861 25.0574C10.888 23.7874 9.77255 22.3412 9.17255 20.5954C8.21985 17.8229 8.47342 15.1798 10.384 12.8758C12.351 10.505 15.7517 10.194 18.3844 12.0744C18.9719 12.4938 19.4696 13.0365 20.0488 13.5582ZM19.9621 30.617C20.0477 30.5586 20.0947 30.5356 20.1301 30.5012C22.1284 28.6365 24.1444 26.7895 26.1145 24.8967C27.2707 23.7864 28.3183 22.5718 29.0895 21.1495C30.1517 19.1899 30.3009 17.1676 29.439 15.1005C28.5615 12.9937 26.6258 11.9001 24.423 12.2904C22.7388 12.5888 21.5472 13.6104 20.6634 15.0316C20.2585 15.6827 19.7002 15.6796 19.3058 15.017C18.8738 14.2907 18.326 13.6699 17.6404 13.1784C15.376 11.5516 12.112 11.8406 10.6334 14.9022C9.94055 16.337 9.81116 17.8459 10.192 19.3913C10.5604 20.8813 11.3899 22.122 12.3677 23.2688C14.6592 25.9537 17.4067 28.1638 19.9621 30.617Z" fill="#7159A6"/>
<path d="M17.9964 23.5348C17.5216 23.5348 17.1084 23.54 16.6951 23.5338C15.9 23.5223 15.3511 22.9891 15.323 22.1887C15.3084 21.7599 15.3084 21.33 15.323 20.9011C15.3491 20.084 15.9021 19.5539 16.7244 19.5435C17.1251 19.5383 17.5268 19.5425 17.987 19.5425C17.987 19.1428 17.9849 18.7713 17.987 18.3999C17.9932 17.3971 18.5045 16.8837 19.499 16.8795C19.8892 16.8774 20.2795 16.8722 20.6698 16.8826C21.3929 16.9025 21.923 17.3866 21.9804 18.1181C22.0159 18.5699 21.9866 19.027 21.9866 19.5414C22.3894 19.5414 22.7609 19.5404 23.1324 19.5414C24.1435 19.5446 24.66 20.0653 24.6642 21.0868C24.6653 21.4385 24.6715 21.7891 24.6621 22.1407C24.6413 22.987 24.0966 23.5254 23.2576 23.5338C22.8569 23.538 22.4562 23.5348 21.996 23.5348C21.996 23.9376 21.9981 24.3091 21.996 24.6806C21.9887 25.6844 21.4795 26.1957 20.483 26.1988C20.0927 26.1999 19.7025 26.2061 19.3122 26.1957C18.5859 26.1769 18.0579 25.6938 18.0016 24.9613C17.9682 24.5094 17.9964 24.0534 17.9964 23.5348ZM20.6604 18.2277C20.1939 18.2277 19.7807 18.2277 19.3216 18.2277C19.3216 18.8402 19.3258 19.436 19.3205 20.0319C19.3143 20.6538 19.091 20.8698 18.4649 20.8708C17.8711 20.8729 17.2785 20.8708 16.6847 20.8708C16.6847 21.3425 16.6847 21.762 16.6847 22.1741C16.7431 22.1866 16.7692 22.1971 16.7943 22.1981C17.3275 22.2002 17.8618 22.2013 18.395 22.2023C19.1181 22.2044 19.3185 22.4047 19.3205 23.132C19.3226 23.7007 19.3205 24.2694 19.3205 24.8465C19.788 24.8465 20.2002 24.8465 20.6583 24.8465C20.6583 24.3237 20.6583 23.8187 20.6583 23.3136C20.6583 22.3421 20.7971 22.2013 21.7539 22.2013C22.2684 22.2013 22.7839 22.2013 23.3077 22.2013C23.3077 21.7338 23.3077 21.3226 23.3077 20.8708C22.7056 20.8708 22.1233 20.8719 21.5411 20.8708C20.8712 20.8698 20.6625 20.66 20.6583 19.9797C20.6583 19.411 20.6604 18.8392 20.6604 18.2277Z" fill="#7159A6"/>
</svg>
