<svg width="52" height="52" viewBox="0 0 52 52" fill="none" xmlns="http://www.w3.org/2000/svg">
<path d="M8.41727 16.727C8.41727 18.3423 9.73138 19.6564 11.3466 19.6564H13.1761C13.5968 19.6564 13.9378 19.3154 13.9378 18.8947C13.9378 18.474 13.5969 18.133 13.1761 18.133H11.3466C10.5714 18.133 9.9406 17.5022 9.9406 16.7269V14.4462C13.5778 14.0644 16.4221 10.9799 16.4221 7.24323C16.4221 3.24929 13.1728 0 9.17888 0C5.18494 0 1.93555 3.24929 1.93555 7.24323C1.93555 10.9799 4.77991 14.0644 8.41716 14.4462V16.727H8.41727ZM3.45898 7.24323C3.45898 4.08921 6.02496 1.52334 9.17898 1.52334C12.333 1.52334 14.8989 4.08931 14.8989 7.24323C14.8989 10.3972 12.333 12.9631 9.17898 12.9631C6.02496 12.9631 3.45898 10.3973 3.45898 7.24323Z" fill="#7159A6"/>
<path d="M11.1084 10.2499C11.4059 10.5474 11.8881 10.5474 12.1856 10.2499C12.4831 9.95241 12.4831 9.47019 12.1856 9.17272L10.2562 7.24333L12.1856 5.31385C12.4831 5.01637 12.4831 4.53415 12.1856 4.23668C11.8882 3.9392 11.406 3.9391 11.1084 4.23668L9.17898 6.16606L7.2496 4.23668C6.95202 3.9392 6.4699 3.9392 6.17233 4.23668C5.87485 4.53415 5.87485 5.01637 6.17233 5.31385L8.10181 7.24333L6.17233 9.17272C5.87485 9.47019 5.87485 9.95241 6.17233 10.2499C6.4698 10.5474 6.95202 10.5474 7.2496 10.2499L9.17898 8.32051L11.1084 10.2499Z" fill="#7159A6"/>
<path d="M45.9352 4.66903C45.5836 4.43808 45.1114 4.53568 44.8804 4.88729L42.3947 8.67008L40.652 7.00558C40.3479 6.71511 39.8656 6.72608 39.5751 7.03036C39.2846 7.33454 39.2956 7.81676 39.5999 8.10722L41.5467 9.96663C42.1245 10.5184 43.0683 10.4192 43.5127 9.74259L46.1534 5.72376C46.3845 5.37225 46.2868 4.90008 45.9352 4.66903Z" fill="#7159A6"/>
<path d="M36.1275 38.3901C33.763 37.3829 31.6723 37.0066 31.0925 36.9156C30.2307 36.3618 30.5365 35.3855 30.4754 34.9318C30.9452 34.6514 31.3976 34.3227 31.8301 33.9425C33.2364 32.7065 34.1269 30.938 34.3348 29.0085C35.3874 28.8972 36.2084 27.9954 36.2039 26.9079L36.1976 24.0454C36.1969 23.8597 36.1716 23.6774 36.1232 23.5001C36.193 23.2891 36.2306 23.065 36.2306 22.8345V18.8811C36.2306 15.1625 33.2053 12.137 29.4867 12.137H22.5134C18.7948 12.137 15.7695 15.1624 15.7695 18.8811V22.8345C15.7695 23.1539 15.8423 23.4605 15.9726 23.7375C15.8571 24.0399 15.7961 24.361 15.7963 24.6862L15.7976 26.4167C15.7985 27.8146 16.8793 28.9645 18.2488 29.076C18.4725 31.0042 19.3779 32.7653 20.7947 33.9895C21.0323 34.1949 21.2762 34.3836 21.5248 34.5592C21.4431 35.2952 21.8098 36.3359 20.9077 36.9156C20.3279 37.0066 18.2372 37.3829 15.8727 38.3901C11.1083 40.4195 8.02979 45.0914 8.02979 50.2922C8.02979 51.2339 8.79587 52 9.73756 52H42.2625C43.2042 52 43.9703 51.2339 43.9703 50.2922C43.9703 45.0914 40.8919 40.4195 36.1275 38.3901ZM17.2928 18.8811C17.2928 16.0024 19.6347 13.6604 22.5134 13.6604H29.4867C32.3654 13.6604 34.7073 16.0024 34.7073 18.8811V22.8345C34.7073 23.0908 34.5447 23.3198 34.3027 23.404L32.8291 23.917C32.8222 23.9194 32.8143 23.9221 32.8017 23.9131C32.789 23.904 32.789 23.8954 32.789 23.8882L32.7922 21.1026C32.7996 19.3292 31.3762 17.8801 29.6195 17.8726C29.5828 17.8752 28.9385 17.8422 28.1506 18.0953C27.727 18.2314 26.6333 18.3563 26 18.4075C23.4258 18.1997 23.6838 17.8716 22.4097 17.8724L22.3812 17.8725C20.6239 17.88 19.2005 19.3291 19.2079 21.1003L19.2111 23.8883C19.2111 23.8952 19.2111 23.9039 19.1984 23.913C19.1858 23.922 19.178 23.9193 19.171 23.9169L17.6974 23.4039C17.4554 23.3196 17.2928 23.0907 17.2928 22.8344V18.8811ZM19.7199 28.3037C19.7094 27.8907 19.3717 27.5614 18.9584 27.5614C18.9583 27.5614 18.9582 27.5614 18.9581 27.5614L18.468 27.5616C18.4678 27.5616 18.4677 27.5616 18.4675 27.5616C17.8355 27.5616 17.3212 27.0477 17.3208 26.4157L17.3197 24.8854L18.6702 25.3557C19.1448 25.5209 19.6725 25.4456 20.0819 25.1542C20.4913 24.8628 20.7352 24.3888 20.7344 23.8865L20.7312 21.0965C20.7273 20.1628 21.4705 19.4 22.3883 19.396C22.41 19.3976 22.8524 19.3751 23.3833 19.5457C24.0618 19.7638 25.8491 19.9472 26.0585 19.9311C26.2414 19.917 27.867 19.7867 28.6167 19.5457C29.1347 19.3792 29.5999 19.3969 29.6124 19.396C30.5297 19.4 31.2729 20.1627 31.269 21.0987L31.2658 23.8863C31.2651 24.3887 31.5089 24.8627 31.9183 25.1542C32.3277 25.4456 32.8553 25.5209 33.33 25.3557L34.6762 24.887L34.6806 26.9127C34.6819 27.2335 34.4294 27.4954 34.1175 27.4967L33.6156 27.4989C33.2013 27.5007 32.8644 27.8333 32.8574 28.2476C32.827 30.0308 32.0861 31.6895 30.8245 32.7984C29.5311 33.9354 28.0071 34.5478 26.3149 34.5761C24.6325 34.5624 23.1102 33.9772 21.7906 32.837C20.5198 31.739 19.7651 30.0867 19.7199 28.3037ZM26.3127 36.0996H26.3181C26.322 36.0996 26.326 36.0996 26.3299 36.0995C27.2467 36.0852 28.1221 35.9324 28.9521 35.6446C28.9641 35.7152 28.8443 36.7279 29.65 37.6597C28.5985 38.4387 27.3301 38.8608 26.0001 38.8608C24.67 38.8608 23.4016 38.4387 22.3501 37.6597C23.2108 36.6645 23.0229 35.5921 23.048 35.4218C24.0668 35.8643 25.158 36.0914 26.3127 36.0996ZM42.2625 50.4767H36.7904V48.0382C36.7904 47.6176 36.4494 47.2765 36.0286 47.2765C35.608 47.2765 35.2669 47.6176 35.2669 48.0382V50.4767H16.7331V48.0382C16.7331 47.6176 16.3921 47.2765 15.9714 47.2765C15.5506 47.2765 15.2096 47.6176 15.2096 48.0382V50.4767H9.73746C9.63569 50.4767 9.55302 50.394 9.55302 50.2922C9.55302 45.703 12.268 41.5813 16.4696 39.7916C18.4139 38.9633 20.1919 38.5891 20.9184 38.4592C22.322 39.7034 24.1114 40.384 26 40.384C27.8883 40.384 29.6779 39.7032 31.0815 38.4592C31.8085 38.5892 33.5863 38.9634 35.5303 39.7916C39.732 41.5813 42.4469 45.703 42.4469 50.2922C42.447 50.394 42.3643 50.4767 42.2625 50.4767Z" fill="#7159A6"/>
<path d="M42.8219 0C38.8279 0 35.5786 3.24929 35.5786 7.24323C35.5786 10.9799 38.423 14.0644 42.0601 14.4463V16.727C42.0601 17.5024 41.4293 18.1331 40.6541 18.1331H38.8248C38.4041 18.1331 38.063 18.4741 38.063 18.8948C38.063 19.3155 38.404 19.6565 38.8248 19.6565H40.6542C42.2694 19.6565 43.5836 18.3424 43.5836 16.7271V14.4463C47.2208 14.0644 50.0652 10.98 50.0652 7.24323C50.0652 3.24929 46.8158 0 42.8219 0V0ZM42.8219 12.9632C39.6678 12.9632 37.1019 10.3973 37.1019 7.24334C37.1019 4.08941 39.6678 1.52344 42.8219 1.52344C45.9759 1.52344 48.5419 4.08941 48.5419 7.24334C48.5419 10.3973 45.9758 12.9632 42.8219 12.9632Z" fill="#7159A6"/>
</svg>
