<svg width="50" height="49" viewBox="0 0 50 49" fill="none" xmlns="http://www.w3.org/2000/svg">
<g clip-path="url(#clip0_2_431)">
<path d="M23.5862 36.2609C23.2176 35.9905 22.699 36.0694 22.4282 36.4382L22.3259 36.5774C22.0553 36.9459 22.1341 37.4637 22.5022 37.7349C22.65 37.8439 22.8223 37.8965 22.9929 37.8965C23.2468 37.8965 23.4975 37.7801 23.6598 37.5602L23.7636 37.419C24.0344 37.0503 23.9549 36.5318 23.5862 36.2609Z" fill="#7159A6"/>
<path d="M23.8027 44.1423L21.6721 40.268L23.6614 37.5587C23.9323 37.1899 23.8528 36.6714 23.4839 36.4006C23.1152 36.1296 22.5967 36.2092 22.3259 36.5781L20.0235 39.7138C19.8326 39.9737 19.81 40.3208 19.9653 40.6034L22.351 44.9407V44.9406C22.5019 45.2148 22.7853 45.37 23.0777 45.37C23.2127 45.3699 23.3496 45.3369 23.4762 45.2673C23.877 45.0469 24.0232 44.5432 23.8027 44.1423Z" fill="#7159A6"/>
<path d="M29.977 39.7139L27.684 36.5909C27.4938 36.332 27.1716 36.2062 26.8563 36.2686C26.5412 36.3305 26.2903 36.5692 26.2124 36.8807C26.1526 37.12 26.2025 37.3732 26.3484 37.572L28.328 40.2681L26.2119 44.1161C26.1447 44.2383 26.1094 44.3761 26.1094 44.5157C26.1094 44.8939 26.3655 45.224 26.7317 45.3181C26.8004 45.3358 26.8695 45.3443 26.9379 45.3443C27.2345 45.3443 27.5155 45.1843 27.6638 44.9151L30.0351 40.6037C30.1906 40.3209 30.1679 39.9738 29.977 39.7139Z" fill="#7159A6"/>
<path d="M31.2897 26.6947C31.0172 26.5516 30.6878 26.5712 30.4343 26.7459C29.9415 27.0854 29.4842 27.445 29.0752 27.8147C26.8457 29.8302 24.7275 29.5575 24.6445 29.5456C24.5946 29.5378 24.5437 29.5341 24.4935 29.5358C23.6124 29.5583 22.0237 28.7532 20.343 27.4333C20.086 27.2314 19.8224 27.0391 19.5592 26.8614C19.3054 26.6899 18.9775 26.6726 18.707 26.8164C18.4364 26.9602 18.2673 27.2416 18.2673 27.548V30.39C18.2673 30.6413 18.3817 30.8789 18.5777 31.0362C18.6009 31.0549 18.625 31.0721 18.6499 31.088L24.5242 35.0133C24.5252 35.0139 24.526 35.0147 24.527 35.0154L24.5425 35.0257C24.6808 35.1172 24.8401 35.1634 25.0001 35.1634C25.1346 35.1634 25.2692 35.1308 25.3922 35.065C25.4181 35.0511 25.443 35.0359 25.4669 35.0197C25.4697 35.0178 25.4725 35.016 25.4753 35.0141C25.4786 35.012 25.4818 35.0098 25.4851 35.0076L31.3456 31.0915C31.3691 31.0766 31.3921 31.0605 31.4142 31.0433C31.6153 30.8863 31.7328 30.6454 31.7328 30.3903V27.4282C31.7328 27.1202 31.5623 26.838 31.2897 26.6947ZM30.0758 29.9469L25 33.3386L19.9242 29.9468V29.1933C21.1602 30.0915 22.9782 31.1932 24.4602 31.1931C24.4633 31.1931 24.4667 31.1931 24.4699 31.1931C24.9674 31.2481 27.5048 31.3977 30.076 29.1421V29.9469H30.0758Z" fill="#7159A6"/>
<path d="M25.8175 34.1989C25.7628 33.8704 25.5166 33.6065 25.1925 33.5292C24.8683 33.4523 24.5297 33.5763 24.3326 33.8448L22.4283 36.4385C22.1575 36.8073 22.2369 37.3258 22.6059 37.5966C22.7535 37.7051 22.9252 37.7573 23.0955 37.7573C23.3503 37.7573 23.6016 37.6401 23.7641 37.4189L25.6583 34.839C25.7661 34.6981 25.8289 34.5228 25.8289 34.3354C25.8288 34.2898 25.825 34.2439 25.8175 34.1989Z" fill="#7159A6"/>
<path d="M37.6214 7.49089C37.605 7.36112 37.2169 4.56026 34.5805 3.45537C34.657 2.96345 34.649 2.33124 34.3367 1.71615C33.917 0.889468 33.0886 0.350754 31.8746 0.11475C31.8226 0.104605 31.7698 0.0995331 31.7166 0.0995331H20.5972C16.0821 0.0995331 12.4087 3.77282 12.4087 8.2881V12.6513C12.4087 13.7881 12.7962 14.8966 13.4996 15.7725C13.8484 16.2068 14.2779 16.9652 14.3427 18.1119C14.3679 18.5597 14.7427 18.9056 15.1932 18.8932C15.6415 18.8805 15.9982 18.5134 15.9982 18.0651V12.3765C16.5608 10.05 18.4807 9.59723 18.8108 9.53607H22.4075C22.8306 9.53607 23.2466 9.47147 23.6443 9.34399C24.3282 9.12464 25.4131 8.72097 26.2031 8.42094C26.7316 8.22005 27.3167 8.21269 27.8504 8.40026L31.7009 9.75198C33.6259 10.4621 33.9695 12.152 34.0121 12.4175V19.2447C34.0121 19.6783 34.3464 20.0381 34.7788 20.0703C34.7998 20.0719 34.8205 20.0727 34.8412 20.0727C35.2475 20.0726 35.5984 19.7749 35.6599 19.3669C35.6632 19.3456 35.9939 17.2088 37.0606 15.498C37.4318 14.9024 37.628 14.2234 37.628 13.5344V7.59549C37.628 7.56056 37.6258 7.52563 37.6214 7.49089ZM35.971 13.534C35.971 13.9041 35.8666 14.2712 35.6689 14.5976V12.3609C35.6689 12.3309 35.6673 12.3011 35.664 12.2714C35.651 12.1511 35.3087 9.31193 32.2667 8.1945C32.263 8.19316 32.2593 8.19182 32.2555 8.19048L28.3992 6.83666C27.9644 6.68402 27.5095 6.60784 27.0549 6.60784C26.5661 6.60784 26.0775 6.69598 25.6146 6.87207C24.5086 7.29221 23.6522 7.60143 23.1382 7.76623C22.9044 7.84117 22.6585 7.87926 22.4074 7.87926H18.7438C18.7083 7.87926 18.6727 7.88155 18.6373 7.88605C18.4971 7.90423 15.1928 8.37414 14.3612 12.1013C14.348 12.1605 14.3413 12.221 14.3413 12.2817V13.9868C14.1609 13.5699 14.0654 13.1145 14.0654 12.6514V8.28829C14.0654 4.68678 16.9956 1.75664 20.597 1.75664H31.633C32.0899 1.85397 32.6452 2.0537 32.8558 2.46006C33.1137 2.95743 32.8199 3.64228 32.8196 3.64285C32.7137 3.86823 32.7149 4.12922 32.8226 4.35364C32.9303 4.57807 33.1334 4.7421 33.3756 4.80038C35.4847 5.30809 35.9149 7.33097 35.9709 7.65818V13.534H35.971Z" fill="#7159A6"/>
<path d="M35.6643 12.2714C35.6513 12.1511 35.309 9.31193 32.2671 8.1945C32.2633 8.19316 32.2596 8.19182 32.2559 8.19048L28.3995 6.83666C27.497 6.51988 26.5082 6.53251 25.6148 6.87188C24.5089 7.29201 23.6524 7.60123 23.1384 7.76613C22.9046 7.84106 22.6587 7.87906 22.4076 7.87906H18.744C18.7085 7.87906 18.6729 7.88135 18.6376 7.88585C18.4974 7.90404 15.193 8.37394 14.3615 12.1011C14.3483 12.1603 14.3416 12.2208 14.3416 12.2815V19.4034C14.3416 19.4095 14.3416 19.4156 14.3417 19.4217C14.3472 19.6691 14.5222 25.5115 18.559 28.1835L18.5799 28.1982C18.5972 28.2105 18.6145 28.2227 18.6326 28.2349C18.8628 28.3903 19.0939 28.559 19.3199 28.7364C20.4959 29.6599 22.7121 31.1931 24.4605 31.1931C24.4637 31.1931 24.4668 31.1931 24.4701 31.1931C24.5651 31.2036 24.7346 31.2176 24.9644 31.2176C25.9552 31.2176 28.0691 30.9579 30.1865 29.0438C30.5418 28.7228 30.9414 28.4087 31.3745 28.1103L31.4365 28.0669C31.4567 28.0526 31.4768 28.0383 31.4977 28.0243C32.8443 27.1199 35.1764 24.7863 35.666 19.3184C35.6682 19.2939 35.6693 19.2691 35.6693 19.2444V12.3608C35.6692 12.331 35.6675 12.3012 35.6643 12.2714ZM34.0122 19.207C33.5608 24.1416 31.4583 26.0546 30.5738 26.6487C30.5424 26.6698 30.5114 26.6916 30.4804 26.7135L30.4345 26.7458C29.9417 27.0853 29.4844 27.4449 29.0754 27.8146C26.8542 29.8227 24.7429 29.5593 24.6393 29.5448C24.5912 29.5376 24.5424 29.5345 24.4937 29.5359C23.6125 29.5584 22.0238 28.7533 20.3432 27.4333C20.0861 27.2314 19.8226 27.0391 19.5598 26.8617L19.5394 26.8474C19.5195 26.8332 19.4997 26.8191 19.4763 26.8036C16.2188 24.6475 16.0056 19.6019 15.9985 19.3914V12.3763C16.563 10.0414 18.4948 9.59377 18.8097 9.53597H22.4077C22.8308 9.53597 23.2468 9.47137 23.6445 9.34389C24.3284 9.12454 25.4135 8.72086 26.2033 8.42083C26.7318 8.21995 27.3169 8.21258 27.8506 8.40016L31.7012 9.75188C33.6262 10.462 33.9697 12.1519 34.0123 12.4174V19.207H34.0122Z" fill="#7159A6"/>
<path d="M25.7411 33.9649C25.612 33.7067 25.3578 33.5343 25.0702 33.5098C24.7831 33.4861 24.5031 33.6123 24.3322 33.8451L22.3477 36.5479C22.0772 36.9166 22.1562 37.4347 22.5246 37.7057C22.6724 37.8144 22.8443 37.8669 23.0148 37.8669C23.269 37.8669 23.5199 37.7503 23.6823 37.5299L25.6669 34.837C25.7719 34.6946 25.8286 34.5125 25.8286 34.3357C25.8286 34.2071 25.7985 34.08 25.7411 33.9649Z" fill="#7159A6"/>
<path d="M25.794 47.3038C25.4828 46.9784 24.9686 46.961 24.6363 47.2651L24.4469 47.4383C24.1633 47.6976 24.0953 48.1179 24.2827 48.4534L24.2885 48.4639C24.415 48.6906 24.6407 48.8449 24.8978 48.8806C24.9359 48.8858 24.974 48.8884 25.0119 48.8884C25.23 48.8884 25.4412 48.8022 25.5977 48.6457L25.7812 48.462C26.0996 48.1436 26.1053 47.6291 25.794 47.3038Z" fill="#7159A6"/>
<path d="M25.5531 47.4383L25.3637 47.2651C25.0314 46.9611 24.5171 46.9785 24.2058 47.3038C23.8945 47.6294 23.9003 48.144 24.2188 48.4623L24.4025 48.646C24.559 48.8025 24.7701 48.8886 24.9882 48.8886C25.0272 48.8886 25.0663 48.8859 25.1055 48.8803C25.3635 48.8434 25.5891 48.6871 25.7146 48.4586L25.7205 48.4482C25.904 48.1132 25.8349 47.696 25.5531 47.4383Z" fill="#7159A6"/>
<path d="M25.5673 47.4512L25.5663 47.4503C25.4383 47.3307 25.2729 47.2518 25.0905 47.2318C24.8464 47.2052 24.6086 47.2879 24.4357 47.4489L24.4332 47.4512C24.2657 47.604 24.1682 47.8188 24.1633 48.0455C24.1584 48.2723 24.2466 48.491 24.4073 48.6508L24.416 48.6595C24.5777 48.8202 24.7889 48.9005 25.0002 48.9005C25.2123 48.9005 25.4243 48.8195 25.5859 48.658L25.5946 48.6493C25.7546 48.4891 25.8423 48.2707 25.837 48.0444C25.8321 47.8181 25.7345 47.6038 25.5673 47.4512Z" fill="#7159A6"/>
<path d="M25.2688 33.5334C24.9257 33.4235 24.5492 33.5509 24.3403 33.8447C24.1066 34.1737 24.1452 34.6221 24.4299 34.9082C24.5901 35.0691 24.8028 35.1516 25.017 35.1516C25.1835 35.1516 25.3508 35.1019 25.4951 35.0002C25.7156 34.8451 25.8468 34.5924 25.8468 34.3227V34.3207C25.8468 33.9602 25.6123 33.643 25.2688 33.5334Z" fill="#7159A6"/>
<path d="M25.6733 33.8379L25.6662 33.8284C25.4537 33.5407 25.0804 33.4222 24.7408 33.5341C24.4011 33.6459 24.1716 33.9633 24.1716 34.3208V34.335C24.1716 34.64 24.3428 34.918 24.6116 35.0624C24.7333 35.1277 24.8677 35.16 25.0019 35.16C25.1637 35.16 25.3253 35.1131 25.4643 35.021C25.6537 34.8956 25.7834 34.6979 25.8229 34.4743C25.8624 34.2507 25.8084 34.0205 25.6733 33.8379Z" fill="#7159A6"/>
<path d="M34.8559 31.2354C34.7701 31.0085 34.5891 30.8306 34.3608 30.7489L31.1843 29.6102C31.1585 29.601 31.1318 29.5928 31.1052 29.5863C30.8785 29.5296 30.6383 29.5712 30.444 29.7011L24.5585 33.634C24.5569 33.635 24.5552 33.6361 24.5536 33.6372L25.0157 34.3244L24.5432 33.6442C24.3706 33.7584 24.247 33.9334 24.1968 34.1342C24.1692 34.2445 24.1647 34.3596 24.1834 34.4717C24.2047 34.5997 24.2559 34.7211 24.3328 34.8259L28.6418 40.6945C28.7984 40.9079 29.0468 41.0327 29.3095 41.0327C29.3275 41.0327 29.3455 41.032 29.3636 41.0308C29.6459 41.0122 29.8992 40.8512 30.0355 40.6033L34.8069 31.928C34.924 31.7153 34.9419 31.4621 34.8559 31.2354ZM29.2092 38.6676L26.1806 34.5428L31.0177 31.3106L32.887 31.9808L29.2092 38.6676Z" fill="#7159A6"/>
<path d="M25.8163 34.1923C25.7774 33.9699 25.6494 33.773 25.4618 33.6472L19.5566 29.7012C19.3687 29.5755 19.137 29.5324 18.9162 29.5814C18.8823 29.5889 18.849 29.5986 18.8164 29.6103L15.6399 30.749C15.4115 30.8308 15.2306 31.0086 15.1447 31.2354C15.0589 31.4624 15.0767 31.7154 15.1936 31.9281L19.9651 40.6034C20.1014 40.8512 20.3547 41.0123 20.6369 41.0309C20.6549 41.032 20.673 41.0326 20.691 41.0326C20.9536 41.0326 21.202 40.9078 21.3588 40.6943L23.6613 37.5586C23.6631 37.5562 23.6649 37.5536 23.6667 37.551L25.668 34.8253C25.8016 34.6433 25.8552 34.4147 25.8163 34.1923ZM22.3258 36.5776C22.3238 36.5803 22.3219 36.583 22.3199 36.5856L20.7912 38.6677L17.1133 31.9808L18.9828 31.3107L23.8197 34.5429L22.3258 36.5776Z" fill="#7159A6"/>
<path d="M49.4593 45.3782L48.3906 38.9246C48.0538 36.8909 46.6404 35.1916 44.7018 34.4905L34.3626 30.7499C34.0438 30.6346 33.6875 30.725 33.4622 30.9778C33.237 31.2308 33.1882 31.5954 33.3394 31.8987L35.4981 36.2277L33.3799 36.2604C33.0923 36.2649 32.8275 36.418 32.6806 36.6653C32.5336 36.9126 32.5254 37.2183 32.6588 37.4731L33.5276 39.1319L24.6365 47.2655C24.6274 47.2738 24.6185 47.2822 24.6098 47.2909L24.4262 47.4745C24.1662 47.7346 24.1087 48.135 24.2852 48.4577L24.2918 48.4695C24.4371 48.7351 24.7158 48.9004 25.0186 48.9004H46.4725C47.3638 48.9004 48.2054 48.5106 48.7817 47.8309C49.358 47.1512 49.605 46.2571 49.4593 45.3782ZM47.5182 46.7593C47.2571 47.0671 46.876 47.2436 46.4726 47.2436H27.1151L35.1169 39.9238C35.3945 39.6701 35.4663 39.2613 35.2917 38.9282L34.7512 37.8962L36.84 37.8641C37.1247 37.8598 37.387 37.7094 37.5351 37.4662C37.6829 37.2229 37.6957 36.9208 37.5687 36.666L35.7468 33.0124L44.1386 36.0484C45.5143 36.546 46.5174 37.7519 46.7564 39.1952L47.8251 45.6488C47.8251 45.6489 47.8251 45.6489 47.8251 45.6489C47.8909 46.0469 47.7792 46.4515 47.5182 46.7593Z" fill="#7159A6"/>
<path d="M25.5741 47.4578L25.5644 47.4491C25.2365 47.1523 24.7329 47.1655 24.4209 47.4792L24.4123 47.4879C24.1764 47.7252 24.1065 48.0813 24.2349 48.3902C24.3634 48.6992 24.6653 48.9005 24.9998 48.9005H25.018C25.3605 48.9005 25.6679 48.6895 25.7909 48.37C25.9143 48.0502 25.8281 47.6877 25.5741 47.4578Z" fill="#7159A6"/>
<path d="M25.5481 47.4339C25.3601 47.2646 25.105 47.1904 24.8552 47.233C24.6057 47.2752 24.3892 47.4294 24.2675 47.6513L24.2618 47.6617C24.0871 47.9801 24.1402 48.3752 24.3928 48.6362L24.3958 48.6393C24.5581 48.8071 24.7744 48.8917 24.9912 48.8917C25.1908 48.8917 25.3909 48.8199 25.5494 48.6751L25.5581 48.6672C25.6333 48.5987 25.6953 48.5166 25.7409 48.4255C25.9077 48.0922 25.8252 47.6831 25.5481 47.4339Z" fill="#7159A6"/>
<path d="M25.5838 47.4846L25.5804 47.481C25.5782 47.4788 25.5759 47.4765 25.5738 47.4744L25.39 47.2908C25.3814 47.2821 25.3725 47.2736 25.3635 47.2655L16.4724 39.1319L17.3413 37.4731C17.4748 37.2184 17.4664 36.9126 17.3195 36.6653C17.1725 36.4181 16.9078 36.2649 16.6202 36.2604L14.5018 36.2277L16.6605 31.8987C16.8117 31.5955 16.7629 31.2308 16.5377 30.9778C16.3125 30.7249 15.9558 30.6344 15.6374 30.7499L5.29824 34.4905C3.35968 35.1916 1.94614 36.8908 1.60936 38.9247L0.54064 45.3782C0.395076 46.2575 0.642182 47.1514 1.21851 47.831C1.79493 48.5106 2.63664 48.9004 3.52764 48.9004H24.9998C25.3354 48.9004 25.6377 48.698 25.7655 48.3879C25.8935 48.0778 25.8217 47.721 25.5838 47.4846ZM3.52773 47.2436C3.12425 47.2436 2.74316 47.0671 2.48227 46.7593C2.22138 46.4516 2.1096 46.0469 2.17544 45.6488L3.24416 39.1952C3.48313 37.7517 4.4862 36.546 5.86194 36.0484L14.2537 33.0124L12.4319 36.6658C12.3048 36.9206 12.3174 37.2227 12.4655 37.466C12.6133 37.7093 12.8758 37.8596 13.1606 37.8639L15.2494 37.8961L14.7088 38.9281C14.5344 39.2611 14.6062 39.67 14.8835 39.9237L22.8854 47.2436H3.52773Z" fill="#7159A6"/>
<path d="M27.8197 37.2819C27.8795 37.0426 27.8296 36.7893 27.6837 36.5905L25.6676 33.8449C25.4557 33.5563 25.0821 33.4415 24.742 33.5531C24.5583 33.6133 24.407 33.7349 24.3063 33.8902L22.3271 36.5757C22.2988 36.614 22.2736 36.6551 22.2522 36.6978C22.1166 36.9691 22.1401 37.2928 22.3133 37.5417L23.1562 38.7521L22.2583 44.4117C22.2295 44.5934 22.262 44.7795 22.3506 44.9408L24.2741 48.4378C24.4196 48.7027 24.6979 48.8671 25 48.8671C25.3021 48.8671 25.5803 48.7027 25.7259 48.4378L27.6637 44.9148C27.7309 44.7925 27.7662 44.6552 27.7662 44.5156V44.5152C27.7662 44.4717 27.7627 44.4283 27.756 44.3853L26.8622 38.7522L27.6959 37.5551C27.7532 37.4723 27.7954 37.3795 27.8197 37.2819ZM25 46.3196L23.9391 44.3909L24.8448 38.6823C24.8784 38.4708 24.8288 38.2547 24.7065 38.0791L24.0122 37.0821L25.0024 35.7386L25.9977 37.0941L25.3118 38.0791C25.1895 38.2546 25.1399 38.4708 25.1734 38.6823L26.075 44.3649L25 46.3196Z" fill="#7159A6"/>
</g>
<defs>
<clipPath id="clip0_2_431">
<rect width="49" height="49" fill="white" transform="translate(0.5)"/>
</clipPath>
</defs>
</svg>
