<svg width="46" height="46" viewBox="0 0 46 46" fill="none" xmlns="http://www.w3.org/2000/svg">
<g clip-path="url(#clip0_2_492)">
<path d="M44.3194 35.4791L35.2112 29.405C34.0554 28.6404 32.506 28.892 31.6515 29.9832L28.9984 33.3944C28.6574 33.844 28.0376 33.9744 27.5444 33.7004L27.0397 33.4222C25.3667 32.5103 23.285 31.375 19.0909 27.1794C14.8968 22.9837 13.7592 20.9005 12.8473 19.2306L12.5706 18.7259C12.2928 18.2327 12.4207 17.6103 12.8705 17.2666L16.2794 14.6143C17.3702 13.7597 17.6221 12.2107 16.8584 11.0545L10.7843 1.94637C10.0015 0.768983 8.43117 0.415539 7.21942 1.14396L3.41072 3.43185C2.214 4.1354 1.33602 5.27482 0.96087 6.61135C-0.410635 11.6086 0.621135 20.2331 13.3258 32.9392C23.432 43.0447 30.9557 45.7623 36.1269 45.7623C37.3171 45.7674 38.5025 45.6126 39.6514 45.3019C40.9882 44.9272 42.1278 44.0491 42.8309 42.8521L45.1211 39.0456C45.8506 37.8336 45.4973 36.2623 44.3194 35.4791ZM43.829 38.2762L41.5441 42.0849C41.0392 42.9489 40.2196 43.5842 39.2569 43.8576C34.6436 45.1242 26.5838 44.0751 14.3868 31.8782C2.18984 19.6812 1.14084 11.6221 2.40742 7.00811C2.68125 6.04427 3.31731 5.22359 4.18237 4.71794L7.99108 2.43303C8.51685 2.11667 9.19843 2.27002 9.53807 2.78094L12.8376 7.73469L15.607 11.8883C15.9386 12.3898 15.8297 13.062 15.3565 13.4331L11.9468 16.0854C10.9091 16.8789 10.6128 18.3145 11.2517 19.454L11.5224 19.9459C12.4808 21.7036 13.6724 23.8903 18.0225 28.2397C22.3726 32.589 24.5585 33.7806 26.3155 34.7389L26.8081 35.0104C27.9475 35.6492 29.3832 35.3529 30.1767 34.3153L32.829 30.9055C33.2002 30.4327 33.8721 30.3238 34.3738 30.6551L43.4811 36.7292C43.9924 37.0686 44.1458 37.7505 43.829 38.2762Z" fill="#7159A6"/>
<path d="M25.9986 8.26656C33.036 8.27438 38.7389 13.9774 38.7468 21.0147C38.7468 21.4289 39.0825 21.7646 39.4966 21.7646C39.9108 21.7646 40.2465 21.4289 40.2465 21.0147C40.2378 13.1494 33.8639 6.77545 25.9986 6.76684C25.5845 6.76684 25.2488 7.10253 25.2488 7.5167C25.2488 7.93087 25.5845 8.26656 25.9986 8.26656Z" fill="#7159A6"/>
<path d="M25.9986 12.7659C30.5521 12.7713 34.2421 16.4612 34.2474 21.0147C34.2474 21.4289 34.5832 21.7646 34.9973 21.7646C35.4115 21.7646 35.7472 21.4289 35.7472 21.0147C35.7409 15.6333 31.38 11.2723 25.9986 11.2662C25.5845 11.2662 25.2488 11.6019 25.2488 12.016C25.2488 12.4302 25.5845 12.7659 25.9986 12.7659Z" fill="#7159A6"/>
<path d="M25.9986 17.2652C28.0683 17.2677 29.7456 18.9449 29.7481 21.0147C29.7481 21.4289 30.0839 21.7646 30.498 21.7646C30.912 21.7646 31.2478 21.4289 31.2478 21.0147C31.2445 18.117 28.8963 15.7688 25.9986 15.7655C25.5845 15.7655 25.2488 16.1012 25.2488 16.5154C25.2488 16.9295 25.5845 17.2652 25.9986 17.2652Z" fill="#7159A6"/>
</g>
<defs>
<clipPath id="clip0_2_492">
<rect width="45" height="45" fill="white" transform="translate(0.5 0.762695)"/>
</clipPath>
</defs>
</svg>
