<svg width="58" height="58" viewBox="0 0 58 58" fill="none" xmlns="http://www.w3.org/2000/svg">
<path d="M29.0003 5.8C16.208 5.8 5.80029 16.2077 5.80029 29C5.80029 41.7923 16.208 52.2 29.0003 52.2C41.7926 52.2 52.2003 41.7923 52.2003 29C52.2003 16.2077 41.7926 5.8 29.0003 5.8ZM29.0003 50.2667C17.2738 50.2667 7.73363 40.7265 7.73363 29C7.73363 17.2735 17.2738 7.73334 29.0003 7.73334C40.7268 7.73334 50.267 17.2735 50.267 29C50.267 40.7265 40.7268 50.2667 29.0003 50.2667Z" fill="#7159A6"/>
<path d="M29.0003 11.6C19.4059 11.6 11.6003 19.406 11.6003 29C11.6003 38.594 19.4059 46.4 29.0003 46.4C38.5948 46.4 46.4003 38.594 46.4003 29C46.4003 19.406 38.5948 11.6 29.0003 11.6ZM29.0003 44.4667C20.4722 44.4667 13.5337 37.5282 13.5337 29C13.5337 20.4718 20.4722 13.5333 29.0003 13.5333C37.5285 13.5333 44.467 20.4718 44.467 29C44.467 37.5282 37.5285 44.4667 29.0003 44.4667Z" fill="#7159A6"/>
<path d="M34.826 23.538L25.9532 32.4107L23.1741 29.6325C22.7965 29.2549 22.1847 29.2549 21.8071 29.6325C21.4295 30.0101 21.4295 30.6218 21.8071 30.9994L25.2698 34.4611C25.4586 34.6499 25.7059 34.7443 25.9532 34.7443C26.2006 34.7443 26.4479 34.6499 26.6367 34.4611L36.1929 24.9049C36.5705 24.5273 36.5705 23.9156 36.1929 23.538C35.8153 23.1603 35.2036 23.1603 34.826 23.538Z" fill="#7159A6"/>
</svg>
